<svg id='Lake_24' width='24' height='24' viewBox='0 0 24 24' xmlns='http://www.w3.org/2000/svg' xmlns:xlink='http://www.w3.org/1999/xlink'><rect width='24' height='24' stroke='none' fill='#000000' opacity='0'/>


<g transform="matrix(0.67 0 0 0.67 12 12)" >
<g style="" >
<g transform="matrix(1 0 0 1 1.5 -5)" >
<path style="stroke: none; stroke-width: 1; stroke-dasharray: none; stroke-linecap: butt; stroke-dashoffset: 0; stroke-linejoin: miter; stroke-miterlimit: 4; fill: rgb(161,106,74); fill-rule: nonzero; opacity: 1;" transform=" translate(-16.5, -10)" d="M 17.5 12.5 L 15.5 12.5 L 15.5 7.5 L 17.5 7.5 L 17.5 12.5 z" stroke-linecap="round" />
</g>
<g transform="matrix(1 0 0 1 1.5 -5)" >
<path style="stroke: none; stroke-width: 1; stroke-dasharray: none; stroke-linecap: butt; stroke-dashoffset: 0; stroke-linejoin: miter; stroke-miterlimit: 4; fill: rgb(122,79,52); fill-rule: nonzero; opacity: 1;" transform=" translate(-16.5, -10)" d="M 18 13 L 15 13 L 15 7 L 18 7 L 18 13 z M 16 12 L 17 12 L 17 8 L 16 8 L 16 12 z" stroke-linecap="round" />
</g>
<g transform="matrix(1 0 0 1 10.5 -3.5)" >
<path style="stroke: none; stroke-width: 1; stroke-dasharray: none; stroke-linecap: butt; stroke-dashoffset: 0; stroke-linejoin: miter; stroke-miterlimit: 4; fill: rgb(161,106,74); fill-rule: nonzero; opacity: 1;" transform=" translate(-25.5, -11.5)" d="M 26.5 14.5 L 24.5 14.5 L 24.5 8.5 L 26.5 8.5 L 26.5 14.5 z" stroke-linecap="round" />
</g>
<g transform="matrix(1 0 0 1 10.5 -3.5)" >
<path style="stroke: none; stroke-width: 1; stroke-dasharray: none; stroke-linecap: butt; stroke-dashoffset: 0; stroke-linejoin: miter; stroke-miterlimit: 4; fill: rgb(122,79,52); fill-rule: nonzero; opacity: 1;" transform=" translate(-25.5, -11.5)" d="M 27 15 L 24 15 L 24 8 L 27 8 L 27 15 z M 25 14 L 26 14 L 26 9 L 25 9 L 25 14 z" stroke-linecap="round" />
</g>
<g transform="matrix(1 0 0 1 1.72 -9.46)" >
<path style="stroke: none; stroke-width: 1; stroke-dasharray: none; stroke-linecap: butt; stroke-dashoffset: 0; stroke-linejoin: miter; stroke-miterlimit: 4; fill: rgb(155,204,159); fill-rule: nonzero; opacity: 1;" transform=" translate(-16.72, -5.54)" d="M 16.722 9.667 C 16.296000000000003 9.667 15.905000000000001 9.459999999999999 15.675 9.113999999999999 C 15.617 9.027 15.517000000000001 8.976999999999999 15.413 8.976999999999999 C 15.376 8.976999999999999 15.338000000000001 8.982999999999999 15.302 8.995999999999999 C 15.154 9.049999999999999 15.006 9.076999999999998 14.862 9.076999999999998 C 14.178 9.076999999999998 13.621 8.547999999999998 13.621 7.897999999999998 C 13.621 7.612999999999998 13.735000000000001 7.335999999999998 13.942 7.115999999999998 C 14.01 7.043999999999998 14.037 6.942999999999998 14.011000000000001 6.847999999999998 C 13.986 6.752999999999998 13.914000000000001 6.676999999999998 13.817 6.641999999999998 C 13.328 6.474 13 6.031 13 5.542 C 13 5.138 13.218 4.766 13.582 4.547 C 13.707 4.4719999999999995 13.759 4.3229999999999995 13.706000000000001 4.192 C 13.649000000000001 4.0520000000000005 13.620000000000001 3.911 13.620000000000001 3.774 C 13.620000000000001 3.124 14.176000000000002 2.5949999999999998 14.861 2.5949999999999998 C 14.946000000000002 2.5949999999999998 15.034 2.6049999999999995 15.131 2.626 C 15.153 2.631 15.176 2.633 15.198 2.633 C 15.259 2.633 15.319 2.616 15.370000000000001 2.584 C 15.440000000000001 2.539 15.488000000000001 2.47 15.503 2.39 C 15.608 1.826 16.12 1.4170000000000003 16.721 1.4170000000000003 C 17.322 1.4170000000000003 17.835 1.8260000000000003 17.939 2.3890000000000002 C 17.953 2.4690000000000003 18.002 2.5380000000000003 18.072 2.583 C 18.122999999999998 2.615 18.183999999999997 2.632 18.244 2.632 C 18.266 2.632 18.289 2.6300000000000003 18.311 2.625 C 18.408 2.605 18.496 2.595 18.581 2.595 C 19.265 2.595 19.822 3.124 19.822 3.774 C 19.822 3.911 19.793 4.053 19.736 4.193 C 19.683 4.324 19.735 4.4719999999999995 19.86 4.548 C 20.224 4.767 20.442 5.138 20.442 5.543 C 20.442 6.032 20.114 6.4750000000000005 19.626 6.6450000000000005 C 19.529 6.679 19.457 6.756 19.432000000000002 6.851000000000001 C 19.407000000000004 6.946000000000001 19.433000000000003 7.046000000000001 19.501 7.119000000000001 C 19.708000000000002 7.339 19.822000000000003 7.6160000000000005 19.822000000000003 7.901000000000001 C 19.822000000000003 8.551 19.266000000000002 9.08 18.581000000000003 9.08 C 18.436000000000003 9.08 18.288000000000004 9.053 18.141000000000002 8.999 C 18.104000000000003 8.986 18.067 8.98 18.03 8.98 C 17.926000000000002 8.98 17.826 9.030000000000001 17.768 9.117 C 17.539 9.46 17.148 9.667 16.722 9.667 z" stroke-linecap="round" />
</g>
<g transform="matrix(1 0 0 1 1.72 -9.46)" >
<path style="stroke: none; stroke-width: 1; stroke-dasharray: none; stroke-linecap: butt; stroke-dashoffset: 0; stroke-linejoin: miter; stroke-miterlimit: 4; fill: rgb(94,156,118); fill-rule: nonzero; opacity: 1;" transform=" translate(-16.72, -5.54)" d="M 16.723 10.167 C 16.177 10.167 15.671 9.922 15.341 9.504999999999999 C 15.206999999999999 9.550999999999998 15.033 9.576999999999998 14.862 9.576999999999998 C 13.902000000000001 9.576999999999998 13.121 8.823999999999998 13.121 7.898999999999998 C 13.121 7.581999999999998 13.217 7.2719999999999985 13.395 7.002999999999998 C 12.851 6.712 12.5 6.153 12.5 5.542 C 12.5 5.0169999999999995 12.753 4.531 13.184 4.213 C 13.142 4.069 13.120999999999999 3.922 13.120999999999999 3.775 C 13.120999999999999 2.787 13.985 1.972 15.059999999999999 2.1079999999999997 C 15.28 1.4069999999999996 15.95 0.9169999999999996 16.723 0.9169999999999996 C 17.496 0.9169999999999996 18.166 1.4069999999999996 18.384999999999998 2.1079999999999997 C 19.386 1.9899999999999998 20.323999999999998 2.7849999999999997 20.323999999999998 3.7749999999999995 C 20.323999999999998 3.9219999999999993 20.302999999999997 4.068999999999999 20.261 4.212999999999999 C 20.692 4.529999999999999 20.945 5.0169999999999995 20.945 5.542999999999999 C 20.945 6.153999999999999 20.594 6.712 20.049 7.004 C 20.227999999999998 7.273 20.323999999999998 7.582999999999999 20.323999999999998 7.8999999999999995 C 20.323999999999998 8.98 19.22 9.83 18.099999999999998 9.509 C 17.771 9.923 17.267 10.167 16.723 10.167 z M 15.259 9.391 C 15.259 9.391 15.259 9.392 15.259 9.391 C 15.259 9.392 15.259 9.391 15.259 9.391 z M 15.413 8.477 C 15.688 8.477 15.941 8.612 16.092 8.838000000000001 C 16.365 9.250000000000002 17.078 9.251000000000001 17.354 8.838000000000001 C 17.556 8.536000000000001 17.95 8.4 18.308999999999997 8.526000000000002 C 18.877 8.736000000000002 19.324999999999996 8.353000000000002 19.324999999999996 7.901000000000002 C 19.324999999999996 7.745000000000002 19.259999999999994 7.589000000000001 19.138999999999996 7.461000000000001 C 18.950999999999997 7.259000000000001 18.880999999999997 6.983000000000001 18.950999999999997 6.722000000000001 C 19.019 6.468000000000002 19.209999999999997 6.263000000000002 19.461999999999996 6.174000000000001 C 19.751999999999995 6.073000000000001 19.944999999999997 5.820000000000001 19.944999999999997 5.544000000000001 C 19.944999999999997 5.317000000000001 19.817999999999998 5.105000000000001 19.604999999999997 4.9780000000000015 C 19.269 4.775000000000001 19.129999999999995 4.368000000000001 19.275 4.008000000000002 C 19.308 3.927000000000002 19.325 3.850000000000002 19.325 3.7760000000000016 C 19.325 3.4020000000000015 18.993 3.0970000000000013 18.584 3.0970000000000013 C 18.535 3.0970000000000013 18.48 3.103000000000001 18.413999999999998 3.1170000000000013 L 18.246999999999996 3.1340000000000012 C 18.092999999999996 3.1340000000000012 17.940999999999995 3.091000000000001 17.808999999999997 3.0090000000000012 C 17.618 2.8870000000000013 17.488999999999997 2.696000000000001 17.448999999999998 2.481000000000001 C 17.389 2.155000000000001 17.084 1.9180000000000013 16.723 1.9180000000000013 C 16.362 1.9180000000000013 16.055999999999997 2.155000000000001 15.995 2.482000000000001 C 15.956 2.695000000000001 15.827 2.8870000000000013 15.641 3.006000000000001 C 15.504 3.091000000000001 15.353 3.1340000000000012 15.199 3.1340000000000012 L 15.036999999999999 3.118000000000001 C 14.966 3.103000000000001 14.911 3.0970000000000013 14.861999999999998 3.0970000000000013 C 14.452999999999998 3.0970000000000013 14.120999999999999 3.4020000000000015 14.120999999999999 3.7760000000000016 C 14.120999999999999 3.8500000000000014 14.137999999999998 3.9260000000000015 14.168999999999999 4.004000000000001 C 14.315 4.368000000000001 14.176999999999998 4.775000000000001 13.841 4.9780000000000015 C 13.628 5.106000000000002 13.501 5.318000000000001 13.501 5.544000000000001 C 13.501 5.8210000000000015 13.693999999999999 6.074000000000002 13.981 6.174000000000001 C 14.235 6.264000000000001 14.426 6.468000000000001 14.495 6.722000000000001 C 14.565 6.9860000000000015 14.494 7.263000000000002 14.306 7.463000000000001 C 14.187 7.589000000000001 14.120999999999999 7.745000000000001 14.120999999999999 7.901000000000001 C 14.120999999999999 8.355 14.61 8.716000000000001 15.129999999999999 8.529 C 15.221 8.493 15.316 8.477 15.413 8.477 z M 13.577 6.774 L 13.577 6.774 L 13.577 6.774 z" stroke-linecap="round" />
</g>
<g transform="matrix(1 0 0 1 10.41 -9.12)" >
<path style="stroke: none; stroke-width: 1; stroke-dasharray: none; stroke-linecap: butt; stroke-dashoffset: 0; stroke-linejoin: miter; stroke-miterlimit: 4; fill: rgb(186,224,189); fill-rule: nonzero; opacity: 1;" transform=" translate(-25.41, -5.88)" d="M 22.189 9.937 L 23.814 7.42 L 23.685 7.376 C 23.372 7.271 23.142 7.16 23.023999999999997 7.098000000000001 L 24.525 4.6370000000000005 L 24.404999999999998 4.598000000000001 C 24.150999999999996 4.513000000000001 23.961999999999996 4.417000000000001 23.860999999999997 4.359000000000001 L 25.406999999999996 1.1580000000000008 L 26.952999999999996 4.360000000000001 C 26.852999999999994 4.418000000000001 26.662999999999997 4.514000000000001 26.408999999999995 4.599000000000001 L 26.288999999999994 4.638000000000001 L 27.789999999999996 7.099 C 27.671999999999997 7.162 27.441999999999997 7.272 27.128999999999994 7.377000000000001 L 26.999999999999993 7.421 L 28.624999999999993 9.938 C 26.92 10.83 24.01 10.83 22.189 9.937 z" stroke-linecap="round" />
</g>
<g transform="matrix(1 0 0 1 10.4 -9.44)" >
<path style="stroke: none; stroke-width: 1; stroke-dasharray: none; stroke-linecap: butt; stroke-dashoffset: 0; stroke-linejoin: miter; stroke-miterlimit: 4; fill: rgb(94,156,118); fill-rule: nonzero; opacity: 1;" transform=" translate(-25.4, -5.56)" d="M 25.45 11.105 C 24.205 11.105 22.945999999999998 10.865 21.969 10.386000000000001 L 21.465 10.138000000000002 L 23.059 7.669000000000002 C 22.944000000000003 7.618000000000002 22.853 7.573000000000002 22.790000000000003 7.540000000000003 L 22.319000000000003 7.291000000000003 L 23.787000000000003 4.886000000000003 C 23.719 4.852000000000003 23.660000000000004 4.821000000000002 23.612000000000002 4.794000000000003 L 23.206000000000003 4.563000000000003 L 25.405 0.00800000000000356 L 27.604 4.562000000000004 L 27.198999999999998 4.794000000000004 C 27.157999999999998 4.817000000000004 27.098 4.850000000000004 27.023 4.887000000000004 L 28.491 7.292000000000003 L 28.02 7.541000000000003 C 27.958 7.574000000000003 27.868 7.620000000000003 27.752 7.6700000000000035 L 29.337999999999997 10.128000000000004 L 28.854 10.382000000000003 C 27.934 10.864 26.699 11.105 25.45 11.105 z M 22.933 9.707 C 24.428 10.237 26.461 10.241000000000001 27.884999999999998 9.718 L 26.232 7.157 L 26.963 6.905 C 26.997 6.893000000000001 27.03 6.882000000000001 27.062 6.87 L 25.53 4.357 L 26.255000000000003 4.123 C 26.263 4.121 26.271 4.118 26.278000000000002 4.115 L 25.406000000000002 2.3070000000000004 L 24.534000000000002 4.113 C 24.544000000000004 4.1160000000000005 24.553 4.119000000000001 24.562 4.123 L 25.28 4.359 L 23.75 6.868 C 23.78 6.8790000000000004 23.812 6.890000000000001 23.845 6.901000000000001 L 24.584 7.151000000000001 L 22.933 9.707 z" stroke-linecap="round" />
</g>
<g transform="matrix(1 0 0 1 0 4.91)" >
<path style="stroke: none; stroke-width: 1; stroke-dasharray: none; stroke-linecap: butt; stroke-dashoffset: 0; stroke-linejoin: miter; stroke-miterlimit: 4; fill: rgb(186,224,189); fill-rule: nonzero; opacity: 1;" transform=" translate(-15, -19.91)" d="M 1 29 L 1 12.75 C 4.027 12.709 6.676 10.817 11.267 10.817 C 15.061 10.817 20.296999999999997 13.465 29 13.465 L 29 29 L 1 29 z" stroke-linecap="round" />
</g>
<g transform="matrix(1 0 0 1 0.04 -2.5)" >
<path style="stroke: none; stroke-width: 1; stroke-dasharray: none; stroke-linecap: butt; stroke-dashoffset: 0; stroke-linejoin: miter; stroke-miterlimit: 4; fill: rgb(94,156,118); fill-rule: nonzero; opacity: 1;" transform=" translate(-15.04, -12.5)" d="M 29 14.076 C 23.71 14.076 19.695999999999998 13.291 16.472 12.66 C 14.431000000000001 12.261 12.669 11.916 11.208000000000002 11.916 C 8.681000000000001 11.916 6.770000000000002 12.282 5.084000000000002 12.604000000000001 C 3.7360000000000024 12.862000000000002 2.4630000000000023 13.106000000000002 1.090000000000002 13.125000000000002 L 1.076000000000002 12.125000000000002 C 2.361000000000002 12.107000000000001 3.5360000000000023 11.883000000000003 4.896000000000002 11.623000000000001 C 6.625000000000002 11.292000000000002 8.585 10.917000000000002 11.208000000000002 10.917000000000002 C 12.766000000000002 10.917000000000002 14.572000000000003 11.270000000000001 16.663000000000004 11.679000000000002 C 19.846000000000004 12.302000000000001 23.807000000000002 13.076000000000002 29.000000000000004 13.076000000000002 L 29.000000000000004 14.076 z" stroke-linecap="round" />
</g>
<g transform="matrix(1 0 0 1 0 14.5)" >
<rect style="stroke: none; stroke-width: 1; stroke-dasharray: none; stroke-linecap: butt; stroke-dashoffset: 0; stroke-linejoin: miter; stroke-miterlimit: 4; fill: rgb(94,156,118); fill-rule: nonzero; opacity: 1;" x="-14" y="-0.5" rx="0" ry="0" width="28" height="1" />
</g>
<g transform="matrix(1 0 0 1 -0.03 5.6)" >
<path style="stroke: none; stroke-width: 1; stroke-dasharray: none; stroke-linecap: butt; stroke-dashoffset: 0; stroke-linejoin: miter; stroke-miterlimit: 4; fill: rgb(139,183,240); fill-rule: nonzero; opacity: 1;" transform=" translate(-14.97, -20.6)" d="M 27.486 20.002 C 27.486 17.564999999999998 24.413 15.588999999999999 20.622 15.588999999999999 C 19.49 15.588999999999999 18.424 15.767999999999999 17.483 16.081 C 16.057000000000002 14.584999999999999 13.498000000000001 13.582999999999998 10.569 13.582999999999998 C 6.089 13.582999999999998 2.4570000000000007 15.918 2.4570000000000007 18.798 C 2.4570000000000007 20.866999999999997 4.336 22.648999999999997 7.0520000000000005 23.491999999999997 C 7.7860000000000005 25.848 11.021 27.623999999999995 14.902000000000001 27.623999999999995 C 18.348000000000003 27.623999999999995 21.277 26.221999999999994 22.406 24.257999999999996 C 25.331 23.754 27.486 22.042 27.486 20.002 z" stroke-linecap="round" />
</g>
<g transform="matrix(1 0 0 1 -0.03 5.6)" >
<path style="stroke: none; stroke-width: 1; stroke-dasharray: none; stroke-linecap: butt; stroke-dashoffset: 0; stroke-linejoin: miter; stroke-miterlimit: 4; fill: rgb(78,122,181); fill-rule: nonzero; opacity: 1;" transform=" translate(-14.97, -20.6)" d="M 14.903 28.125 C 11.017 28.125 7.613 26.36 6.663 23.893 C 3.7540000000000004 22.918 1.9580000000000002 20.983 1.9580000000000002 18.799 C 1.9580000000000002 15.648 5.821 13.084 10.57 13.084 C 13.407 13.084 16.014 13.987 17.622 15.514 C 18.57 15.232999999999999 19.578 15.09 20.623 15.09 C 24.684 15.09 27.986 17.294 27.986 20.003 C 27.986 22.188 25.832 24.102 22.717 24.711 C 21.384 26.792 18.352 28.125 14.903 28.125 z M 10.57 14.083 C 6.373 14.083 2.958 16.198 2.958 18.798000000000002 C 2.958 20.560000000000002 4.623 22.215000000000003 7.2010000000000005 23.015 L 7.452000000000001 23.093 L 7.530000000000001 23.343 C 8.213000000000001 25.534 11.313 27.124 14.903000000000002 27.124 C 18.061000000000003 27.124 20.902 25.872 21.973000000000003 24.009 L 22.090000000000003 23.805 L 22.321000000000005 23.765 C 25.067000000000004 23.29 26.985000000000007 21.743000000000002 26.985000000000007 20.001 C 26.985000000000007 17.843 24.131000000000007 16.088 20.622000000000007 16.088 C 19.575000000000006 16.088 18.572000000000006 16.245 17.640000000000008 16.554000000000002 L 17.33900000000001 16.654000000000003 L 17.120000000000008 16.425000000000004 C 15.744 14.981 13.234 14.083 10.57 14.083 z" stroke-linecap="round" />
</g>
<g transform="matrix(1 0 0 1 -6.5 2.5)" >
<rect style="stroke: none; stroke-width: 1; stroke-dasharray: none; stroke-linecap: butt; stroke-dashoffset: 0; stroke-linejoin: miter; stroke-miterlimit: 4; fill: rgb(78,122,181); fill-rule: nonzero; opacity: 1;" x="-1.5" y="-0.5" rx="0" ry="0" width="3" height="1" />
</g>
<g transform="matrix(1 0 0 1 -1.5 4.5)" >
<rect style="stroke: none; stroke-width: 1; stroke-dasharray: none; stroke-linecap: butt; stroke-dashoffset: 0; stroke-linejoin: miter; stroke-miterlimit: 4; fill: rgb(78,122,181); fill-rule: nonzero; opacity: 1;" x="-2.5" y="-0.5" rx="0" ry="0" width="5" height="1" />
</g>
<g transform="matrix(1 0 0 1 -5 6.5)" >
<rect style="stroke: none; stroke-width: 1; stroke-dasharray: none; stroke-linecap: butt; stroke-dashoffset: 0; stroke-linejoin: miter; stroke-miterlimit: 4; fill: rgb(78,122,181); fill-rule: nonzero; opacity: 1;" x="-2" y="-0.5" rx="0" ry="0" width="4" height="1" />
</g>
<g transform="matrix(1 0 0 1 1.5 8.5)" >
<rect style="stroke: none; stroke-width: 1; stroke-dasharray: none; stroke-linecap: butt; stroke-dashoffset: 0; stroke-linejoin: miter; stroke-miterlimit: 4; fill: rgb(78,122,181); fill-rule: nonzero; opacity: 1;" x="-2.5" y="-0.5" rx="0" ry="0" width="5" height="1" />
</g>
<g transform="matrix(1 0 0 1 5 3.5)" >
<rect style="stroke: none; stroke-width: 1; stroke-dasharray: none; stroke-linecap: butt; stroke-dashoffset: 0; stroke-linejoin: miter; stroke-miterlimit: 4; fill: rgb(78,122,181); fill-rule: nonzero; opacity: 1;" x="-2" y="-0.5" rx="0" ry="0" width="4" height="1" />
</g>
<g transform="matrix(1 0 0 1 7.5 5.5)" >
<rect style="stroke: none; stroke-width: 1; stroke-dasharray: none; stroke-linecap: butt; stroke-dashoffset: 0; stroke-linejoin: miter; stroke-miterlimit: 4; fill: rgb(78,122,181); fill-rule: nonzero; opacity: 1;" x="-1.5" y="-0.5" rx="0" ry="0" width="3" height="1" />
</g>
</g>
</g>
</svg>