<svg id='Plant_24' width='24' height='24' viewBox='0 0 24 24' xmlns='http://www.w3.org/2000/svg' xmlns:xlink='http://www.w3.org/1999/xlink'><rect width='24' height='24' stroke='none' fill='#000000' opacity='0'/>


<g transform="matrix(0.04 0 0 0.04 12 12)" >
<g style="" >
<g transform="matrix(1 0 0 1 -31.95 7.6)" >
<path style="stroke: none; stroke-width: 1; stroke-dasharray: none; stroke-linecap: butt; stroke-dashoffset: 0; stroke-linejoin: miter; stroke-miterlimit: 4; fill: rgb(58,179,124); fill-rule: nonzero; opacity: 1;" transform=" translate(-224.05, -263.6)" d="M 176.7 227 C 173.7 207.3 163.7 189.2 150.89999999999998 174.3 C 126.39999999999998 145.70000000000002 87.59999999999998 123.20000000000002 48.89999999999998 126.50000000000001 C 50.199999999999974 151.8 53.59999999999998 177 56.49999999999998 202.20000000000002 C 58.69999999999998 221.60000000000002 58.99999999999998 242 66.79999999999998 260.20000000000005 C 72.69999999999999 273.80000000000007 83.19999999999999 284.70000000000005 97.89999999999998 288.70000000000005 C 116.19999999999997 293.6 134.99999999999997 292.30000000000007 151.49999999999997 283.6 C 147.29999999999998 275 142.39999999999998 266.6 137.09999999999997 258.5 C 119.39999999999996 231.6 98.19999999999996 207.4 78.39999999999996 182.1 C 75.49999999999996 182.6 72.29999999999997 181.1 72.29999999999997 177.29999999999998 L 72.29999999999997 172.79999999999998 C 72.29999999999997 167.29999999999998 78.89999999999996 164.79999999999998 82.29999999999997 169.29999999999998 C 104.39999999999998 198.2 129.09999999999997 225.29999999999998 148.59999999999997 256.09999999999997 C 153.39999999999998 263.7 157.79999999999995 271.49999999999994 161.69999999999996 279.49999999999994 C 167.19999999999996 272.8999999999999 171.99999999999997 265.59999999999997 174.79999999999995 257.3999999999999 C 178 247.6 178.2 237 176.7 227 z M 238.1 445.6 C 232.6 434.20000000000005 228.9 422 225.79999999999998 409.8 C 219.6 385 216.29999999999998 359.6 215.2 334.1 C 214.1 308.8 214.1 282.90000000000003 218.39999999999998 257.90000000000003 C 220.2 247.60000000000002 222.7 237.40000000000003 225.7 227.40000000000003 C 218.89999999999998 237.80000000000004 214 249.90000000000003 209.79999999999998 260.50000000000006 C 200.99999999999997 282.70000000000005 193.7 306.1000000000001 189.39999999999998 329.6 C 184.2 358 182.7 387.20000000000005 185.29999999999998 416 C 186.29999999999998 427.2 188.6 437.2 191.89999999999998 447.9 C 193.7 453.79999999999995 196.09999999999997 460.29999999999995 196.89999999999998 466.79999999999995 C 214.99999999999997 467.19999999999993 232.7 469.59999999999997 250.29999999999998 473.79999999999995 C 247.3 463.9 242.6 454.8 238.1 445.6 z M 340.9 272.5 C 323.09999999999997 277.2 303.5 280 287.4 289.3 C 269.7 299.5 258.4 317 257.09999999999997 337.5 C 255.79999999999995 357.2 261.49999999999994 377 269.2 395.1 C 269.8 394.3 270.4 393.6 271 392.8 C 281.1 379.1 287.1 363.40000000000003 295.6 348.8 C 304.20000000000005 334.1 314.3 318.90000000000003 327.6 308 C 338.3 299.2 351.8 293.5 361.70000000000005 283.9 C 366.80000000000007 279 375.1 286.2 370.00000000000006 291.2 C 359.6000000000001 301.2 346.00000000000006 307.09999999999997 334.90000000000003 316.3 C 321.00000000000006 327.7 310.40000000000003 344.2 302.1 359.90000000000003 C 294.5 374.3 288 388.90000000000003 278.1 401.8 C 293 405.90000000000003 311.20000000000005 399.8 324.5 394.2 C 341.2 387.3 357.7 377.8 368.7 363.09999999999997 C 381.9 345.29999999999995 385.2 322.9 386.7 301.4 C 387.9 284.7 388.09999999999997 267.79999999999995 390.7 251.29999999999998 C 375.4 261.4 358.4 268 340.9 272.5 z M 398 53.4 C 390.8 58.4 382.2 62 374.9 64.7 C 355.09999999999997 72.10000000000001 334.7 77.9 314.7 85 C 291.3 93.4 267.5 103.2 251.89999999999998 123.4 C 240.89999999999998 137.8 232.59999999999997 158 241.29999999999998 174.5 C 242.89999999999998 175 244.2 176.1 244.79999999999998 177.9 C 245.29999999999998 179.20000000000002 245.89999999999998 180.6 246.49999999999997 181.9 C 246.99999999999997 182.5 247.39999999999998 183.20000000000002 247.59999999999997 183.9 C 253.19999999999996 176.9 260.2 171 266.49999999999994 164.6 C 272.8999999999999 158.1 279.3999999999999 151.6 286.09999999999997 145.5 C 293.4 138.8 300.9 132.2 309.2 126.8 C 315.09999999999997 123 321.9 119 329.2 118.8 C 336.3 118.6 337.09999999999997 129.6 330 129.8 C 323.6 130 317.4 134.3 312.4 137.9 C 305 143.20000000000002 298.09999999999997 149.20000000000002 291.5 155.5 C 285.6 161.1 279.9 166.8 274.1 172.6 C 267.20000000000005 179.5 258.90000000000003 185.79999999999998 253.60000000000002 194.2 C 254.90000000000003 195.89999999999998 256.40000000000003 197.5 258 198.89999999999998 C 273.4 212.99999999999997 298.8 215.49999999999997 318.7 213.39999999999998 C 339.3 211.29999999999998 360.4 203.49999999999997 375.3 188.59999999999997 C 411.8 152 394.7 100 398 53.4 z" stroke-linecap="round" />
</g>
<g transform="matrix(1 0 0 1 -30.35 -0.32)" >
<path style="stroke: none; stroke-width: 1; stroke-dasharray: none; stroke-linecap: butt; stroke-dashoffset: 0; stroke-linejoin: miter; stroke-miterlimit: 4; fill: rgb(1,1,1); fill-rule: nonzero; opacity: 1;" transform=" translate(-225.65, -255.68)" d="M 402.3 28.6 C 401.7 30.5 401.2 32.4 400.8 34.300000000000004 C 398.5 39.300000000000004 393.90000000000003 42.900000000000006 389.1 46 C 380.90000000000003 51.2 371.5 54.4 362.40000000000003 57.5 C 340.40000000000003 64.9 318.1 71.5 296.5 80.2 C 273.5 89.5 252.9 101.7 239 122.9 C 227.8 140 222.1 161.7 232 180.10000000000002 C 229.9 184.20000000000002 233.8 188.70000000000002 237.6 188.3 C 239.5 192.10000000000002 241.6 195.8 244.1 199.20000000000002 C 242.5 198.20000000000002 240.4 197.9 238.29999999999998 199.20000000000002 C 220.49999999999997 210.20000000000002 210.2 231.90000000000003 202.29999999999998 250.40000000000003 C 192.79999999999998 272.8 185.2 296.8 180.2 320.5 C 179.6 323.5 179 326.5 178.39999999999998 329.5 C 175.99999999999997 316 171.99999999999997 303 166.7 290.4 C 173.89999999999998 282.5 180.1 273.7 184.1 263.7 C 188.5 252.6 189.29999999999998 240.5 188.1 228.7 C 185.79999999999998 207.1 175.4 186.89999999999998 161.9 170.2 C 134.9 136.79999999999998 90.10000000000001 110.79999999999998 46 115.69999999999999 C 43.6 115.99999999999999 42.1 117.49999999999999 41.5 119.29999999999998 C 39.5 120.09999999999998 37.9 121.89999999999998 38 124.69999999999999 C 39.3 152.89999999999998 43.3 180.79999999999998 46.4 208.79999999999998 C 48.8 229.89999999999998 49.9 250.89999999999998 59.7 270.2 C 67.4 285.3 81 295.4 97.2 299.8 C 116.6 305.1 137.1 303 154.9 294.2 C 155.5 294.8 156.3 295.4 157.20000000000002 295.7 C 165.20000000000002 315.09999999999997 169.9 335.59999999999997 170.00000000000003 357.2 C 170.00000000000003 360.3 172.10000000000002 361.8 174.40000000000003 362.09999999999997 C 173.20000000000005 377.99999999999994 173.10000000000002 393.99999999999994 174.10000000000002 409.79999999999995 C 174.90000000000003 421.9 176.40000000000003 433.49999999999994 179.90000000000003 445.19999999999993 C 181.40000000000003 450.29999999999995 183.10000000000002 455.3999999999999 184.50000000000003 460.5999999999999 C 185.50000000000003 464.2999999999999 187.10000000000002 468.7999999999999 186.60000000000002 472.7999999999999 C 185.90000000000003 478.4999999999999 192.90000000000003 480.9999999999999 196.00000000000003 477.8999999999999 C 216.70000000000002 478.19999999999993 236.8 481.49999999999994 256.90000000000003 486.7999999999999 C 261.20000000000005 487.8999999999999 263.6 484.0999999999999 263.1 480.6999999999999 C 263.3 479.89999999999986 263.3 478.9999999999999 263.1 478.09999999999985 C 260.70000000000005 467.09999999999985 255.90000000000003 456.99999999999983 251.00000000000003 446.99999999999983 C 248.70000000000002 442.29999999999984 246.70000000000002 437.59999999999985 244.80000000000004 432.8999999999998 C 254.10000000000005 426.6999999999998 262.70000000000005 419.3999999999998 270.40000000000003 411.1999999999998 C 287.40000000000003 418.0999999999998 308.00000000000006 412.5999999999998 324.40000000000003 406.49999999999983 C 342.50000000000006 399.6999999999998 360.1 389.6999999999998 373.20000000000005 375.29999999999984 C 406.80000000000007 338.29999999999984 392.80000000000007 283.99999999999983 404.40000000000003 239.49999999999983 C 405.90000000000003 233.59999999999982 398.50000000000006 231.59999999999982 394.90000000000003 234.79999999999984 C 377.00000000000006 250.79999999999984 353.70000000000005 258.49999999999983 330.80000000000007 264.1999999999998 C 311.9000000000001 268.8999999999998 292.4000000000001 272.8999999999998 276.00000000000006 283.99999999999983 C 235.00000000000006 311.6999999999998 243.70000000000005 365.89999999999986 261.50000000000006 404.6999999999998 C 255.30000000000007 411.1999999999998 248.40000000000006 416.99999999999983 241.00000000000006 422.1999999999998 C 240.10000000000005 419.3999999999998 239.20000000000005 416.49999999999983 238.40000000000006 413.5999999999998 C 231.70000000000007 389.8999999999998 228.40000000000006 365.3999999999998 226.90000000000006 340.8999999999998 C 225.40000000000006 316.49999999999983 225.30000000000007 291.6999999999998 228.50000000000006 267.4999999999998 C 229.90000000000006 256.5999999999998 232.60000000000005 245.99999999999977 235.40000000000006 235.39999999999978 C 237.40000000000006 227.89999999999978 239.50000000000006 217.89999999999978 246.20000000000007 213.09999999999977 C 249.20000000000007 210.89999999999978 248.90000000000006 207.29999999999976 247.10000000000008 204.99999999999977 C 247.20000000000007 204.19999999999976 247.10000000000008 203.39999999999978 246.80000000000007 202.59999999999977 C 248.70000000000007 204.89999999999978 250.70000000000007 206.99999999999977 253.00000000000006 208.99999999999977 C 261.6000000000001 216.49999999999977 272.30000000000007 219.79999999999978 283.1000000000001 222.29999999999978 C 303.9000000000001 227.1999999999998 326.2000000000001 225.5999999999998 346.30000000000007 218.89999999999978 C 366.6000000000001 212.09999999999977 384.30000000000007 198.99999999999977 395.9000000000001 180.99999999999977 C 411.2000000000001 157.49999999999977 411.30000000000007 127.89999999999978 409.80000000000007 100.89999999999978 C 408.70000000000005 80.09999999999978 406.9000000000001 59.29999999999978 411.30000000000007 38.89999999999978 C 412.4000000000001 36.49999999999978 413.1000000000001 33.79999999999978 413.30000000000007 30.99999999999978 C 413.7 23.6 404.4 21.8 402.3 28.6 z M 148.6 255.9 C 129.2 225 104.39999999999999 198 82.3 169.10000000000002 C 78.89999999999999 164.60000000000002 72.3 167.10000000000002 72.3 172.60000000000002 L 72.3 177.10000000000002 C 72.3 180.90000000000003 75.5 182.40000000000003 78.39999999999999 181.90000000000003 C 98.19999999999999 207.20000000000005 119.39999999999999 231.40000000000003 137.1 258.30000000000007 C 142.4 266.4000000000001 147.29999999999998 274.80000000000007 151.5 283.4000000000001 C 135 292.1000000000001 116.2 293.5000000000001 97.9 288.5000000000001 C 83.30000000000001 284.5000000000001 72.7 273.7000000000001 66.80000000000001 260.0000000000001 C 59.000000000000014 241.80000000000013 58.70000000000001 221.40000000000012 56.500000000000014 202.0000000000001 C 53.600000000000016 176.80000000000013 50.20000000000002 151.6000000000001 48.90000000000001 126.30000000000011 C 87.60000000000002 123.00000000000011 126.4 145.5000000000001 150.9 174.1000000000001 C 163.70000000000002 189.1000000000001 173.70000000000002 207.2000000000001 176.70000000000002 226.80000000000013 C 178.20000000000002 236.80000000000013 178.00000000000003 247.40000000000012 174.70000000000002 257.10000000000014 C 171.9 265.3000000000001 167.20000000000002 272.60000000000014 161.60000000000002 279.20000000000016 C 157.7 271.3 153.4 263.5 148.6 255.9 z M 257 337.6 C 258.3 317.1 269.6 299.6 287.3 289.40000000000003 C 303.5 280.1 323 277.20000000000005 340.8 272.6 C 358.40000000000003 268 375.40000000000003 261.5 390.3 251.40000000000003 C 387.7 267.90000000000003 387.5 284.8 386.3 301.50000000000006 C 384.8 323.00000000000006 381.5 345.40000000000003 368.3 363.20000000000005 C 357.3 377.90000000000003 340.8 387.40000000000003 324.1 394.30000000000007 C 310.8 399.80000000000007 292.6 406.00000000000006 277.70000000000005 401.9000000000001 C 287.70000000000005 389.0000000000001 294.1 374.4000000000001 301.70000000000005 360.0000000000001 C 310.00000000000006 344.2000000000001 320.6 327.8000000000001 334.50000000000006 316.4000000000001 C 345.6000000000001 307.30000000000007 359.30000000000007 301.30000000000007 369.6000000000001 291.30000000000007 C 374.7000000000001 286.4000000000001 366.4000000000001 279.20000000000005 361.30000000000007 284.00000000000006 C 351.4000000000001 293.6000000000001 337.9000000000001 299.30000000000007 327.20000000000005 308.1000000000001 C 313.90000000000003 319.00000000000006 303.80000000000007 334.1000000000001 295.20000000000005 348.9000000000001 C 286.70000000000005 363.5000000000001 280.70000000000005 379.2000000000001 270.6 392.9000000000001 C 270 393.7000000000001 269.40000000000003 394.4000000000001 268.8 395.2000000000001 C 261.4 377.1 255.8 357.3 257 337.6 z M 218.5 257.9 C 214.1 282.9 214.2 308.79999999999995 215.3 334.09999999999997 C 216.4 359.59999999999997 219.70000000000002 384.99999999999994 225.9 409.79999999999995 C 229 422.09999999999997 232.70000000000002 434.19999999999993 238.20000000000002 445.59999999999997 C 242.60000000000002 454.79999999999995 247.4 463.9 250.50000000000003 473.7 C 232.90000000000003 469.59999999999997 215.20000000000005 467.09999999999997 197.10000000000002 466.7 C 196.3 460.3 193.90000000000003 453.8 192.10000000000002 447.8 C 188.8 437.1 186.50000000000003 427.1 185.50000000000003 415.90000000000003 C 182.90000000000003 387.1 184.40000000000003 358.00000000000006 189.60000000000002 329.5 C 193.90000000000003 306 201.20000000000002 282.6 210.00000000000003 260.4 C 214.20000000000002 249.79999999999998 219.10000000000002 237.79999999999998 225.90000000000003 227.29999999999998 C 222.7 237.3 220.3 247.6 218.5 257.9 z M 375.4 188.4 C 360.5 203.3 339.4 211.1 318.79999999999995 213.20000000000002 C 298.9 215.20000000000002 273.4 212.70000000000002 258.09999999999997 198.70000000000002 C 256.49999999999994 197.20000000000002 255.09999999999997 195.70000000000002 253.69999999999996 194.00000000000003 C 258.99999999999994 185.70000000000002 267.29999999999995 179.40000000000003 274.19999999999993 172.40000000000003 C 279.8999999999999 166.60000000000002 285.69999999999993 160.90000000000003 291.5999999999999 155.30000000000004 C 298.19999999999993 149.00000000000003 305.0999999999999 143.10000000000005 312.4999999999999 137.70000000000005 C 317.4999999999999 134.10000000000005 323.6999999999999 129.80000000000004 330.0999999999999 129.60000000000005 C 337.19999999999993 129.40000000000006 336.2999999999999 118.40000000000005 329.2999999999999 118.60000000000005 C 321.9999999999999 118.80000000000005 315.2999999999999 122.70000000000005 309.2999999999999 126.60000000000005 C 300.9999999999999 132.00000000000006 293.4999999999999 138.70000000000005 286.1999999999999 145.30000000000004 C 279.4999999999999 151.50000000000003 272.9999999999999 157.90000000000003 266.59999999999985 164.40000000000003 C 260.1999999999999 170.80000000000004 253.29999999999984 176.70000000000005 247.69999999999985 183.70000000000005 C 247.49999999999986 183.00000000000006 247.19999999999985 182.30000000000004 246.59999999999985 181.70000000000005 C 245.99999999999986 180.40000000000003 245.39999999999986 179.10000000000005 244.89999999999986 177.70000000000005 C 244.19999999999987 176.00000000000006 242.89999999999986 174.80000000000004 241.39999999999986 174.30000000000004 C 232.69999999999987 157.80000000000004 240.99999999999986 137.50000000000006 251.99999999999986 123.20000000000005 C 267.59999999999985 103.00000000000004 291.39999999999986 93.20000000000005 314.79999999999984 84.80000000000004 C 334.6999999999998 77.70000000000005 355.09999999999985 71.90000000000003 374.99999999999983 64.50000000000004 C 382.29999999999984 61.80000000000004 390.79999999999984 58.200000000000045 398.09999999999985 53.200000000000045 C 394.7 100 411.8 152 375.4 188.4 z" stroke-linecap="round" />
</g>
</g>
</g>
</svg>