<svg id='Island_On_Water_24' width='24' height='24' viewBox='0 0 24 24' xmlns='http://www.w3.org/2000/svg' xmlns:xlink='http://www.w3.org/1999/xlink'><rect width='24' height='24' stroke='none' fill='#000000' opacity='0'/>


<g transform="matrix(0.63 0 0 0.63 12 12)" >
<g style="" >
<g transform="matrix(1 0 0 1 -8.6 -9.14)" >
<linearGradient id="SVGID_6Mc3YUlflsXkUB5Mj8PVFa_2" gradientUnits="userSpaceOnUse" gradientTransform="matrix(-0.96 0.28 0.28 0.96 514.79 -28.99)" x1="497.059" y1="-110.211" x2="496.263" y2="-108.134">
<stop offset="0%" style="stop-color:rgb(37,186,59);stop-opacity: 1"/>
<stop offset="93.2%" style="stop-color:rgb(29,151,47);stop-opacity: 1"/>
<stop offset="100%" style="stop-color:rgb(28,148,46);stop-opacity: 1"/>
</linearGradient>
<path style="stroke: none; stroke-width: 1; stroke-dasharray: none; stroke-linecap: butt; stroke-dashoffset: 0; stroke-linejoin: miter; stroke-miterlimit: 4; fill: url(#SVGID_6Mc3YUlflsXkUB5Mj8PVFa_2); fill-rule: nonzero; opacity: 1;" transform=" translate(-7.4, -6.86)" d="M 8.063 5.697 C 8.582 6.209 8.485000000000001 6.319 8.726 8.024000000000001 C 8.726 8.024000000000001 7.256000000000001 7.464 6.083000000000001 7.202000000000001 C 6.614 5.853 8.063 5.697 8.063 5.697 z" stroke-linecap="round" />
</g>
<g transform="matrix(1 0 0 1 -4.76 -3.22)" >
<linearGradient id="SVGID_6Mc3YUlflsXkUB5Mj8PVFb_3" gradientUnits="userSpaceOnUse" gradientTransform="matrix(-1 0 0 1 548.77 0)" x1="538.806" y1="6.939" x2="536.131" y2="17.487">
<stop offset="0%" style="stop-color:rgb(247,171,124);stop-opacity: 1"/>
<stop offset="40.9%" style="stop-color:rgb(231,141,86);stop-opacity: 1"/>
<stop offset="100%" style="stop-color:rgb(209,100,34);stop-opacity: 1"/>
</linearGradient>
<path style="stroke: none; stroke-width: 1; stroke-dasharray: none; stroke-linecap: butt; stroke-dashoffset: 0; stroke-linejoin: miter; stroke-miterlimit: 4; fill: url(#SVGID_6Mc3YUlflsXkUB5Mj8PVFb_3); fill-rule: nonzero; opacity: 1;" transform=" translate(-11.24, -12.78)" d="M 11.972 18.062 C 13.073 18.674 13.983 18.388 14.885 18.062 C 14.885 9.324000000000002 8.332 7.140000000000001 8.332 7.140000000000001 L 7.603 7.868 C 7.603 7.868 12.7 9.324 11.972 18.062 z" stroke-linecap="round" />
</g>
<g transform="matrix(1 0 0 1 -4.41 -3.22)" >
<linearGradient id="SVGID_6Mc3YUlflsXkUB5Mj8PVFc_4" gradientUnits="userSpaceOnUse" gradientTransform="matrix(-1 0 0 1 548.77 0)" x1="538.415" y1="6.84" x2="535.742" y2="17.381">
<stop offset="0%" style="stop-color:rgb(217,113,48);stop-opacity: 1"/>
<stop offset="24.9%" style="stop-color:rgb(199,102,42);stop-opacity: 1"/>
<stop offset="100%" style="stop-color:rgb(147,70,24);stop-opacity: 1"/>
</linearGradient>
<path style="stroke: none; stroke-width: 1; stroke-dasharray: none; stroke-linecap: butt; stroke-dashoffset: 0; stroke-linejoin: miter; stroke-miterlimit: 4; fill: url(#SVGID_6Mc3YUlflsXkUB5Mj8PVFc_4); fill-rule: nonzero; opacity: 1;" transform=" translate(-11.59, -12.78)" d="M 13.417 18.419 C 13.903 18.419 14.885 18.063 14.885 18.063 C 14.885 9.325 8.332 7.140999999999998 8.332 7.140999999999998 L 8.286 7.278 C 8.286 7.278 8.844999999999999 7.794 9.725 8.360999999999999 L 9.713 8.847 L 10.364999999999998 8.575999999999999 C 10.436999999999998 9.078 10.753999999999998 9.270999999999999 11.054999999999998 9.649999999999999 L 10.891999999999998 10.335999999999999 L 11.857999999999997 9.982 C 11.712999999999997 10.552 11.879999999999997 10.764 12.143999999999997 11.232999999999999 L 11.906999999999996 12.046999999999999 L 13.037999999999997 11.780999999999999 C 12.734999999999996 12.216 12.803999999999997 12.642 12.941999999999997 13.075 L 12.401999999999997 13.860999999999999 L 13.813999999999997 13.748 C 13.454999999999997 14.202 13.333999999999996 14.689 13.393999999999997 15.199 L 12.551999999999996 15.876 L 14.022999999999996 15.854999999999999 C 13.713 16.461 13.359 17.879 13.417 18.419 z" stroke-linecap="round" />
</g>
<g transform="matrix(1 0 0 1 -9.85 -5.64)" >
<radialGradient id="SVGID_6Mc3YUlflsXkUB5Mj8PVFd_5" gradientUnits="userSpaceOnUse" gradientTransform="matrix(-0.82 -0.44 -0.44 0.82 712.69 254.1)" cx="788.129" cy="128.549" r="4.33" fx="788.129" fy="128.549">
<stop offset="0%" style="stop-color:rgb(55,219,79);stop-opacity: 1"/>
<stop offset="83.1%" style="stop-color:rgb(46,184,67);stop-opacity: 1"/>
<stop offset="100%" style="stop-color:rgb(44,176,64);stop-opacity: 1"/>
</radialGradient>
<path style="stroke: none; stroke-width: 1; stroke-dasharray: none; stroke-linecap: butt; stroke-dashoffset: 0; stroke-linejoin: miter; stroke-miterlimit: 4; fill: url(#SVGID_6Mc3YUlflsXkUB5Mj8PVFd_5); fill-rule: nonzero; opacity: 1;" transform=" translate(-6.15, -10.36)" d="M 8.295 7.425 C 6.2330000000000005 9.189 5.176 10.988 4.6080000000000005 13.407 C 4.6080000000000005 13.407 3.202000000000001 11.526 4.667000000000001 9.157 C 6.201 6.676 8.295 7.425 8.295 7.425 z" stroke-linecap="round" />
</g>
<g transform="matrix(1 0 0 1 -5.09 -10.03)" >
<radialGradient id="SVGID_6Mc3YUlflsXkUB5Mj8PVFe_6" gradientUnits="userSpaceOnUse" gradientTransform="matrix(-0.32 -0.76 -0.74 0.31 558.67 395.98)" cx="694.493" cy="437.367" r="4.33" fx="694.493" fy="437.367">
<stop offset="0%" style="stop-color:rgb(55,219,79);stop-opacity: 1"/>
<stop offset="83.1%" style="stop-color:rgb(46,184,67);stop-opacity: 1"/>
<stop offset="100%" style="stop-color:rgb(44,176,64);stop-opacity: 1"/>
</radialGradient>
<path style="stroke: none; stroke-width: 1; stroke-dasharray: none; stroke-linecap: butt; stroke-dashoffset: 0; stroke-linejoin: miter; stroke-miterlimit: 4; fill: url(#SVGID_6Mc3YUlflsXkUB5Mj8PVFe_6); fill-rule: nonzero; opacity: 1;" transform=" translate(-10.91, -5.97)" d="M 13.78 5.489 C 11.427999999999999 5.546 9.738999999999999 6.184 8.047 7.515 C 8.047 7.515 8.108 5.4559999999999995 10.382000000000001 4.656 C 12.762 3.819 13.78 5.489 13.78 5.489 z" stroke-linecap="round" />
</g>
<g transform="matrix(1 0 0 1 -8.14 -5.07)" >
<radialGradient id="SVGID_6Mc3YUlflsXkUB5Mj8PVFf_7" gradientUnits="userSpaceOnUse" gradientTransform="matrix(-0.91 0.2 0.2 0.91 539.26 21.69)" cx="551.137" cy="-131.582" r="4.33" fx="551.137" fy="-131.582">
<stop offset="0%" style="stop-color:rgb(55,219,79);stop-opacity: 1"/>
<stop offset="83.1%" style="stop-color:rgb(46,184,67);stop-opacity: 1"/>
<stop offset="100%" style="stop-color:rgb(44,176,64);stop-opacity: 1"/>
</radialGradient>
<path style="stroke: none; stroke-width: 1; stroke-dasharray: none; stroke-linecap: butt; stroke-dashoffset: 0; stroke-linejoin: miter; stroke-miterlimit: 4; fill: url(#SVGID_6Mc3YUlflsXkUB5Mj8PVFf_7); fill-rule: nonzero; opacity: 1;" transform=" translate(-7.86, -10.93)" d="M 8.164 7.454 C 7.741 10.135 8.106 12.189 9.246 14.398 C 9.246 14.398 6.956 13.881 6.531000000000001 11.128 C 6.085 8.245 8.164 7.454 8.164 7.454 z" stroke-linecap="round" />
</g>
<g transform="matrix(1 0 0 1 -4.78 -8.23)" >
<radialGradient id="SVGID_6Mc3YUlflsXkUB5Mj8PVFg_8" gradientUnits="userSpaceOnUse" gradientTransform="matrix(0.21 -0.91 -0.83 -0.2 438.13 544.87)" cx="452.845" cy="628.427" r="4.33" fx="452.845" fy="628.427">
<stop offset="0%" style="stop-color:rgb(55,219,79);stop-opacity: 1"/>
<stop offset="83.1%" style="stop-color:rgb(46,184,67);stop-opacity: 1"/>
<stop offset="100%" style="stop-color:rgb(44,176,64);stop-opacity: 1"/>
</radialGradient>
<path style="stroke: none; stroke-width: 1; stroke-dasharray: none; stroke-linecap: butt; stroke-dashoffset: 0; stroke-linejoin: miter; stroke-miterlimit: 4; fill: url(#SVGID_6Mc3YUlflsXkUB5Mj8PVFg_8); fill-rule: nonzero; opacity: 1;" transform=" translate(-11.22, -7.77)" d="M 14.31 9.358 C 12.273 7.871 10.428 7.357000000000001 8.135000000000002 7.48 C 8.135000000000002 7.48 9.508000000000001 5.6160000000000005 11.954 6.364000000000001 C 14.516 7.148 14.31 9.358 14.31 9.358 z" stroke-linecap="round" />
</g>
<g transform="matrix(1 0 0 1 -9.85 -5.64)" >
<linearGradient id="SVGID_6Mc3YUlflsXkUB5Mj8PVFh_9" gradientUnits="userSpaceOnUse" gradientTransform="matrix(-0.93 0.38 0.38 0.93 568.49 10.78)" x1="517.882" y1="-216.609" x2="522.828" y2="-212.189">
<stop offset="0%" style="stop-color:rgb(28,148,46);stop-opacity: 1"/>
<stop offset="45.9%" style="stop-color:rgb(84,214,103);stop-opacity: 1"/>
<stop offset="100%" style="stop-color:rgb(49,173,68);stop-opacity: 1"/>
</linearGradient>
<path style="stroke: none; stroke-width: 1; stroke-dasharray: none; stroke-linecap: butt; stroke-dashoffset: 0; stroke-linejoin: miter; stroke-miterlimit: 4; fill: url(#SVGID_6Mc3YUlflsXkUB5Mj8PVFh_9); fill-rule: nonzero; opacity: 1;" transform=" translate(-6.15, -10.36)" d="M 8.295 7.425 C 6.2330000000000005 9.189 5.176 10.988 4.6080000000000005 13.407 C 4.6080000000000005 13.407 3.202000000000001 11.526 4.667000000000001 9.157 C 6.201 6.676 8.295 7.425 8.295 7.425 z" stroke-linecap="round" />
</g>
<g transform="matrix(1 0 0 1 -5.09 -10.03)" >
<linearGradient id="SVGID_6Mc3YUlflsXkUB5Mj8PVFi_10" gradientUnits="userSpaceOnUse" gradientTransform="matrix(-0.99 0.13 0.13 0.99 555.02 4.58)" x1="542.636" y1="-70.604" x2="534.959" y2="-71.278">
<stop offset="0%" style="stop-color:rgb(28,148,46);stop-opacity: 1"/>
<stop offset="45.9%" style="stop-color:rgb(84,214,103);stop-opacity: 1"/>
<stop offset="100%" style="stop-color:rgb(49,173,68);stop-opacity: 1"/>
</linearGradient>
<path style="stroke: none; stroke-width: 1; stroke-dasharray: none; stroke-linecap: butt; stroke-dashoffset: 0; stroke-linejoin: miter; stroke-miterlimit: 4; fill: url(#SVGID_6Mc3YUlflsXkUB5Mj8PVFi_10); fill-rule: nonzero; opacity: 1;" transform=" translate(-10.91, -5.97)" d="M 13.78 5.489 C 11.427999999999999 5.546 9.738999999999999 6.184 8.047 7.515 C 8.047 7.515 8.108 5.4559999999999995 10.382000000000001 4.656 C 12.762 3.819 13.78 5.489 13.78 5.489 z" stroke-linecap="round" />
</g>
<g transform="matrix(1 0 0 1 -8.14 -5.07)" >
<linearGradient id="SVGID_6Mc3YUlflsXkUB5Mj8PVFj_11" gradientUnits="userSpaceOnUse" gradientTransform="matrix(-0.98 0.21 0.21 0.98 559.08 6.99)" x1="539.156" y1="-116.516" x2="540.069" y2="-109.901">
<stop offset="0%" style="stop-color:rgb(28,148,46);stop-opacity: 1"/>
<stop offset="45.9%" style="stop-color:rgb(84,214,103);stop-opacity: 1"/>
<stop offset="100%" style="stop-color:rgb(49,173,68);stop-opacity: 1"/>
</linearGradient>
<path style="stroke: none; stroke-width: 1; stroke-dasharray: none; stroke-linecap: butt; stroke-dashoffset: 0; stroke-linejoin: miter; stroke-miterlimit: 4; fill: url(#SVGID_6Mc3YUlflsXkUB5Mj8PVFj_11); fill-rule: nonzero; opacity: 1;" transform=" translate(-7.86, -10.93)" d="M 8.164 7.454 C 7.741 10.135 8.106 12.189 9.246 14.398 C 9.246 14.398 6.956 13.881 6.531000000000001 11.128 C 6.085 8.245 8.164 7.454 8.164 7.454 z" stroke-linecap="round" />
</g>
<g transform="matrix(1 0 0 1 -4.78 -8.23)" >
<linearGradient id="SVGID_6Mc3YUlflsXkUB5Mj8PVFk_12" gradientUnits="userSpaceOnUse" gradientTransform="matrix(-0.99 0.16 0.16 0.99 556.11 5.32)" x1="540.923" y1="-84.294" x2="534.701" y2="-79.015">
<stop offset="0%" style="stop-color:rgb(28,148,46);stop-opacity: 1"/>
<stop offset="45.9%" style="stop-color:rgb(84,214,103);stop-opacity: 1"/>
<stop offset="100%" style="stop-color:rgb(49,173,68);stop-opacity: 1"/>
</linearGradient>
<path style="stroke: none; stroke-width: 1; stroke-dasharray: none; stroke-linecap: butt; stroke-dashoffset: 0; stroke-linejoin: miter; stroke-miterlimit: 4; fill: url(#SVGID_6Mc3YUlflsXkUB5Mj8PVFk_12); fill-rule: nonzero; opacity: 1;" transform=" translate(-11.22, -7.77)" d="M 14.31 9.358 C 12.273 7.871 10.428 7.357000000000001 8.135000000000002 7.48 C 8.135000000000002 7.48 9.508000000000001 5.6160000000000005 11.954 6.364000000000001 C 14.516 7.148 14.31 9.358 14.31 9.358 z" stroke-linecap="round" />
</g>
<g transform="matrix(1 0 0 1 -6.56 -4.58)" >
<linearGradient id="SVGID_6Mc3YUlflsXkUB5Mj8PVFl_13" gradientUnits="userSpaceOnUse" gradientTransform="matrix(1 0 0 1 0 0)" x1="9.442" y1="4.422" x2="9.442" y2="18.419">
<stop offset="0%" style="stop-color:rgb(0,0,0);stop-opacity: 0.02"/>
<stop offset="100%" style="stop-color:rgb(0,0,0);stop-opacity: 0.15"/>
</linearGradient>
<path style="stroke: none; stroke-width: 1; stroke-dasharray: none; stroke-linecap: butt; stroke-dashoffset: 0; stroke-linejoin: miter; stroke-miterlimit: 4; fill: url(#SVGID_6Mc3YUlflsXkUB5Mj8PVFl_13); fill-rule: nonzero; opacity: 1;" transform=" translate(-9.44, -11.42)" d="M 9.073 7.471 C 10.947000000000001 7.524 12.559000000000001 8.08 14.31 9.359 C 14.31 9.359 14.516 7.149 11.955 6.365 C 11.548 6.2410000000000005 11.172 6.189 10.826 6.189 C 10.543000000000001 6.189 10.281 6.224 10.040000000000001 6.281 C 11.139000000000001 5.781 12.333000000000002 5.524 13.779 5.489 C 13.779 5.489 13.128 4.420999999999999 11.651 4.420999999999999 C 11.281 4.420999999999999 10.858 4.4879999999999995 10.381 4.656 C 9.33 5.026 8.764 5.662 8.446 6.242 C 8.375 6.042 8.268 5.9 8.063 5.697 C 8.063 5.697 6.614000000000001 5.852 6.083 7.202 C 6.3340000000000005 7.258 6.598 7.329 6.859 7.404 C 6.179 7.57 5.366 8.027 4.667 9.157 C 3.202 11.527000000000001 4.608 13.407 4.608 13.407 C 5.004 11.721 5.646999999999999 10.339 6.692 9.057 C 6.493 9.582 6.396 10.258000000000001 6.53 11.127 C 6.955 13.88 9.245000000000001 14.397 9.245000000000001 14.397 C 8.195 12.362 7.812000000000001 10.452 8.087000000000002 8.068999999999999 C 9.340000000000002 8.690999999999999 12.561000000000002 10.992999999999999 11.972000000000001 18.061 C 12.442000000000002 18.322 12.877 18.416 13.291 18.416 C 13.333 18.416 13.375 18.415 13.416 18.413 C 13.416 18.414 13.416 18.416 13.416 18.417 C 13.434000000000001 18.417 13.457 18.413 13.477 18.412000000000003 C 13.496 18.411 13.514000000000001 18.409000000000002 13.533 18.408 C 13.597999999999999 18.402 13.667 18.393 13.74 18.380000000000003 C 14.107 18.324 14.461 18.211000000000002 14.813 18.085 C 14.855 18.071 14.884 18.060000000000002 14.884 18.060000000000002 C 14.885 11.142 10.783 8.34 9.073 7.471 z M 13.697 18.136 C 13.636999999999999 18.147 13.581 18.154 13.527 18.159 L 13.405 18.163999999999998 C 13.366999999999999 18.165999999999997 13.328999999999999 18.166999999999998 13.290999999999999 18.166999999999998 C 12.926999999999998 18.166999999999998 12.579999999999998 18.084999999999997 12.233999999999998 17.916999999999998 C 12.765999999999998 10.903999999999998 9.594999999999999 8.538999999999998 8.197999999999999 7.845999999999998 L 7.879 7.688 L 7.839 8.041 C 7.588 10.218 7.859 12.017 8.744 13.940000000000001 C 8.084999999999999 13.611 7.045 12.826 6.776999999999999 11.089000000000002 C 6.663999999999999 10.358000000000002 6.7139999999999995 9.704000000000002 6.925999999999999 9.146000000000003 L 7.47 7.707 L 6.498 8.899 C 5.58 10.024999999999999 4.944 11.256 4.524 12.733999999999998 C 4.236 12.055999999999997 3.955 10.783999999999999 4.88 9.287999999999998 C 5.433 8.393999999999998 6.118 7.841999999999999 6.9190000000000005 7.6469999999999985 L 7.8340000000000005 7.423999999999999 L 6.929 7.163999999999999 C 6.765 7.117 6.602 7.072 6.44 7.031 C 6.878 6.253 7.676 6.024 7.9750000000000005 5.965 C 8.103 6.101 8.167 6.201 8.212 6.327 L 8.399 6.85 L 8.665999999999999 6.3629999999999995 C 9.043999999999999 5.6739999999999995 9.649 5.18 10.463999999999999 4.893 C 10.879999999999999 4.747 11.28 4.672 11.650999999999998 4.672 C 12.429999999999998 4.672 12.950999999999999 4.994 13.250999999999998 5.263 C 12.005999999999997 5.342 10.941999999999997 5.5969999999999995 9.936999999999998 6.054 L 10.097999999999997 6.525 C 10.334999999999997 6.468 10.579999999999997 6.44 10.825999999999997 6.44 C 11.167999999999997 6.44 11.523999999999997 6.495 11.880999999999997 6.605 C 13.522999999999996 7.107 13.936999999999998 8.221 14.034999999999997 8.862 C 12.430999999999997 7.782 10.882999999999996 7.273 9.079999999999997 7.222 L 7.968 7.189 L 8.96 7.694 C 10.651000000000002 8.554 14.565000000000001 11.261 14.633000000000001 17.886 C 14.351 17.984 14.027 18.085 13.697 18.136 z" stroke-linecap="round" />
</g>
<g transform="matrix(1 0 0 1 -1 4.5)" >
<linearGradient id="SVGID_6Mc3YUlflsXkUB5Mj8PVFm_14" gradientUnits="userSpaceOnUse" gradientTransform="matrix(1 0 0 1 0 0)" x1="15" y1="16.957" x2="15" y2="24.018">
<stop offset="0%" style="stop-color:rgb(255,212,148);stop-opacity: 1"/>
<stop offset="100%" style="stop-color:rgb(232,147,23);stop-opacity: 1"/>
</linearGradient>
<path style="stroke: none; stroke-width: 1; stroke-dasharray: none; stroke-linecap: butt; stroke-dashoffset: 0; stroke-linejoin: miter; stroke-miterlimit: 4; fill: url(#SVGID_6Mc3YUlflsXkUB5Mj8PVFm_14); fill-rule: nonzero; opacity: 1;" transform=" translate(-15, -20.5)" d="M 2 24 C 2 24 3.231 17 15 17 C 26.769 17 28 24 28 24 L 2 24 z" stroke-linecap="round" />
</g>
<g transform="matrix(1 0 0 1 -1 4.5)" >
<linearGradient id="SVGID_6Mc3YUlflsXkUB5Mj8PVFn_15" gradientUnits="userSpaceOnUse" gradientTransform="matrix(1 0 0 1 0 0)" x1="15" y1="17" x2="15" y2="24">
<stop offset="0%" style="stop-color:rgb(0,0,0);stop-opacity: 0.02"/>
<stop offset="100%" style="stop-color:rgb(0,0,0);stop-opacity: 0.15"/>
</linearGradient>
<path style="stroke: none; stroke-width: 1; stroke-dasharray: none; stroke-linecap: butt; stroke-dashoffset: 0; stroke-linejoin: miter; stroke-miterlimit: 4; fill: url(#SVGID_6Mc3YUlflsXkUB5Mj8PVFn_15); fill-rule: nonzero; opacity: 1;" transform=" translate(-15, -20.5)" d="M 15 17 C 3.231 17 2 24 2 24 L 28 24 C 28 24 26.769 17 15 17 z M 15 17.25 C 25.019 17.25 27.269 22.445999999999998 27.675 23.75 L 2.325 23.75 C 2.731 22.446 4.981 17.25 15 17.25 z" stroke-linecap="round" />
</g>
<g transform="matrix(1 0 0 1 0 8.5)" >
<linearGradient id="SVGID_6Mc3YUlflsXkUB5Mj8PVFo_16" gradientUnits="userSpaceOnUse" gradientTransform="matrix(1 0 0 1 0 0)" x1="16" y1="20.97" x2="16" y2="28.003">
<stop offset="0%" style="stop-color:rgb(0,220,255);stop-opacity: 1"/>
<stop offset="100%" style="stop-color:rgb(0,179,255);stop-opacity: 1"/>
</linearGradient>
<path style="stroke: none; stroke-width: 1; stroke-dasharray: none; stroke-linecap: butt; stroke-dashoffset: 0; stroke-linejoin: miter; stroke-miterlimit: 4; fill: url(#SVGID_6Mc3YUlflsXkUB5Mj8PVFo_16); fill-rule: nonzero; opacity: 1;" transform=" translate(-16, -24.5)" d="M 30 28 L 2 28 C 1.448 28 1 27.552 1 27 L 1 21 C 1 21 3 22 6 22 C 9 22 11 21 11 21 C 11 21 13 22 16 22 C 19 22 21 21 21 21 C 21 21 24 22 26 22 C 28 22 31 21 31 21 L 31 27 C 31 27.552 30.552 28 30 28 z" stroke-linecap="round" />
</g>
<g transform="matrix(1 0 0 1 0 8.5)" >
<linearGradient id="SVGID_6Mc3YUlflsXkUB5Mj8PVFp_17" gradientUnits="userSpaceOnUse" gradientTransform="matrix(1 0 0 1 0 0)" x1="16" y1="21" x2="16" y2="28">
<stop offset="0%" style="stop-color:rgb(0,0,0);stop-opacity: 0.02"/>
<stop offset="100%" style="stop-color:rgb(0,0,0);stop-opacity: 0.15"/>
</linearGradient>
<path style="stroke: none; stroke-width: 1; stroke-dasharray: none; stroke-linecap: butt; stroke-dashoffset: 0; stroke-linejoin: miter; stroke-miterlimit: 4; fill: url(#SVGID_6Mc3YUlflsXkUB5Mj8PVFp_17); fill-rule: nonzero; opacity: 1;" transform=" translate(-16, -24.5)" d="M 21.017 21.269 C 21.556 21.442999999999998 24.161 22.25 26 22.25 C 27.647 22.25 29.909 21.602 30.75 21.342 L 30.75 27 C 30.75 27.414 30.414 27.75 30 27.75 L 2 27.75 C 1.586 27.75 1.25 27.414 1.25 27 L 1.25 21.383 C 1.964 21.672 3.683 22.25 6 22.25 C 8.661 22.25 10.532 21.488 11 21.276 C 11.468 21.488 13.339 22.25 16 22.25 C 18.694 22.25 20.578 21.469 21.017 21.269 M 31 21 C 31 21 28 22 26 22 C 24 22 21 21 21 21 C 21 21 19 22 16 22 C 13 22 11 21 11 21 C 11 21 9 22 6 22 C 3 22 1 21 1 21 L 1 27 C 1 27.552 1.448 28 2 28 L 30 28 C 30.552 28 31 27.552 31 27 L 31 21 L 31 21 z" stroke-linecap="round" />
</g>
<g transform="matrix(1 0 0 1 9.77 -10.14)" >
<linearGradient id="SVGID_6Mc3YUlflsXkUB5Mj8PVFq_18" gradientUnits="userSpaceOnUse" gradientTransform="matrix(0.96 0.28 -0.28 0.96 33.97 -29)" x1="2.377" y1="34.805" x2="1.444" y2="37.242">
<stop offset="0%" style="stop-color:rgb(37,186,59);stop-opacity: 1"/>
<stop offset="93.2%" style="stop-color:rgb(29,151,47);stop-opacity: 1"/>
<stop offset="100%" style="stop-color:rgb(28,148,46);stop-opacity: 1"/>
</linearGradient>
<path style="stroke: none; stroke-width: 1; stroke-dasharray: none; stroke-linecap: butt; stroke-dashoffset: 0; stroke-linejoin: miter; stroke-miterlimit: 4; fill: url(#SVGID_6Mc3YUlflsXkUB5Mj8PVFq_18); fill-rule: nonzero; opacity: 1;" transform=" translate(-25.77, -5.86)" d="M 25.002 4.496 C 24.394 5.096 24.506999999999998 5.226000000000001 24.224 7.226000000000001 C 24.224 7.226000000000001 25.948 6.569000000000001 27.324 6.2620000000000005 C 26.701 4.678 25.002 4.496 25.002 4.496 z" stroke-linecap="round" />
</g>
<g transform="matrix(1 0 0 1 5.27 -3.19)" >
<linearGradient id="SVGID_6Mc3YUlflsXkUB5Mj8PVFr_19" gradientUnits="userSpaceOnUse" gradientTransform="matrix(1 0 0 1 0 0)" x1="22.775" y1="5.953" x2="19.637" y2="18.325">
<stop offset="0%" style="stop-color:rgb(217,113,48);stop-opacity: 1"/>
<stop offset="24.9%" style="stop-color:rgb(199,102,42);stop-opacity: 1"/>
<stop offset="100%" style="stop-color:rgb(147,70,24);stop-opacity: 1"/>
</linearGradient>
<path style="stroke: none; stroke-width: 1; stroke-dasharray: none; stroke-linecap: butt; stroke-dashoffset: 0; stroke-linejoin: miter; stroke-miterlimit: 4; fill: url(#SVGID_6Mc3YUlflsXkUB5Mj8PVFr_19); fill-rule: nonzero; opacity: 1;" transform=" translate(-21.27, -12.81)" d="M 20.416 19 C 19.124 19.718 18.057000000000002 19.382 17 19 C 17 8.751 24.687 6.189 24.687 6.189 L 25.541 7.043 C 25.541 7.043 19.562 8.751 20.416 19 z" stroke-linecap="round" />
</g>
<g transform="matrix(1 0 0 1 4.87 -3.2)" >
<linearGradient id="SVGID_6Mc3YUlflsXkUB5Mj8PVFs_20" gradientUnits="userSpaceOnUse" gradientTransform="matrix(1 0 0 1 0 0)" x1="22.316" y1="5.837" x2="19.181" y2="18.201">
<stop offset="0%" style="stop-color:rgb(247,171,124);stop-opacity: 1"/>
<stop offset="40.9%" style="stop-color:rgb(231,141,86);stop-opacity: 1"/>
<stop offset="100%" style="stop-color:rgb(209,100,34);stop-opacity: 1"/>
</linearGradient>
<path style="stroke: none; stroke-width: 1; stroke-dasharray: none; stroke-linecap: butt; stroke-dashoffset: 0; stroke-linejoin: miter; stroke-miterlimit: 4; fill: url(#SVGID_6Mc3YUlflsXkUB5Mj8PVFs_20); fill-rule: nonzero; opacity: 1;" transform=" translate(-20.87, -12.8)" d="M 18.722 19.418 C 18.152 19.418 17 19 17 19 C 17 8.751 24.687 6.189 24.687 6.189 L 24.740000000000002 6.351 C 24.740000000000002 6.351 24.084000000000003 6.9559999999999995 23.052000000000003 7.621 L 23.067000000000004 8.191 L 22.302000000000003 7.8740000000000006 C 22.218000000000004 8.463000000000001 21.846000000000004 8.690000000000001 21.492000000000004 9.134 L 21.684000000000005 9.939 L 20.55 9.524 C 20.720000000000002 10.193 20.524 10.441999999999998 20.215 10.991999999999999 L 20.494 11.947 L 19.168 11.635 C 19.523 12.145 19.442 12.645 19.279999999999998 13.153 L 19.913999999999998 14.075000000000001 L 18.258 13.942 C 18.679 14.474 18.820999999999998 15.046 18.750999999999998 15.644 L 19.738999999999997 16.438 L 18.013999999999996 16.413 C 18.374 17.122 18.789 18.785 18.722 19.418 z" stroke-linecap="round" />
</g>
<g transform="matrix(1 0 0 1 11.25 -6.03)" >
<radialGradient id="SVGID_6Mc3YUlflsXkUB5Mj8PVFt_21" gradientUnits="userSpaceOnUse" gradientTransform="matrix(0.88 -0.47 0.47 0.88 -196.12 256.01)" cx="310.749" cy="-110.868" r="4.741" fx="310.749" fy="-110.868">
<stop offset="0%" style="stop-color:rgb(55,219,79);stop-opacity: 1"/>
<stop offset="83.1%" style="stop-color:rgb(46,184,67);stop-opacity: 1"/>
<stop offset="100%" style="stop-color:rgb(44,176,64);stop-opacity: 1"/>
</radialGradient>
<path style="stroke: none; stroke-width: 1; stroke-dasharray: none; stroke-linecap: butt; stroke-dashoffset: 0; stroke-linejoin: miter; stroke-miterlimit: 4; fill: url(#SVGID_6Mc3YUlflsXkUB5Mj8PVFt_21); fill-rule: nonzero; opacity: 1;" transform=" translate(-27.25, -9.97)" d="M 24.73 6.522 C 27.149 8.591000000000001 28.389 10.701 29.055 13.539000000000001 C 29.055 13.539000000000001 30.704 11.333000000000002 28.985 8.554000000000002 C 27.186 5.645 24.73 6.522 24.73 6.522 z" stroke-linecap="round" />
</g>
<g transform="matrix(1 0 0 1 5.66 -11.19)" >
<radialGradient id="SVGID_6Mc3YUlflsXkUB5Mj8PVFu_22" gradientUnits="userSpaceOnUse" gradientTransform="matrix(0.34 -0.81 0.8 0.34 -31.09 408.02)" cx="442.687" cy="-124.735" r="4.741" fx="442.687" fy="-124.735">
<stop offset="0%" style="stop-color:rgb(55,219,79);stop-opacity: 1"/>
<stop offset="83.1%" style="stop-color:rgb(46,184,67);stop-opacity: 1"/>
<stop offset="100%" style="stop-color:rgb(44,176,64);stop-opacity: 1"/>
</radialGradient>
<path style="stroke: none; stroke-width: 1; stroke-dasharray: none; stroke-linecap: butt; stroke-dashoffset: 0; stroke-linejoin: miter; stroke-miterlimit: 4; fill: url(#SVGID_6Mc3YUlflsXkUB5Mj8PVFu_22); fill-rule: nonzero; opacity: 1;" transform=" translate(-21.66, -4.81)" d="M 18.296 4.252 C 21.055 4.318 23.036 5.067 25.021 6.628 C 25.021 6.628 24.95 4.213 22.283 3.275 C 19.49 2.294 18.296 4.252 18.296 4.252 z" stroke-linecap="round" />
</g>
<g transform="matrix(1 0 0 1 9.24 -5.37)" >
<radialGradient id="SVGID_6Mc3YUlflsXkUB5Mj8PVFv_23" gradientUnits="userSpaceOnUse" gradientTransform="matrix(0.98 0.21 -0.21 0.98 -10.3 6.99)" cx="32.382" cy="-3.612" r="4.741" fx="32.382" fy="-3.612">
<stop offset="0%" style="stop-color:rgb(55,219,79);stop-opacity: 1"/>
<stop offset="83.1%" style="stop-color:rgb(46,184,67);stop-opacity: 1"/>
<stop offset="100%" style="stop-color:rgb(44,176,64);stop-opacity: 1"/>
</radialGradient>
<path style="stroke: none; stroke-width: 1; stroke-dasharray: none; stroke-linecap: butt; stroke-dashoffset: 0; stroke-linejoin: miter; stroke-miterlimit: 4; fill: url(#SVGID_6Mc3YUlflsXkUB5Mj8PVFv_23); fill-rule: nonzero; opacity: 1;" transform=" translate(-25.24, -10.63)" d="M 24.884 6.557 C 25.38 9.701 24.952 12.111 23.615000000000002 14.702 C 23.615000000000002 14.702 26.302000000000003 14.096 26.8 10.866 C 27.321 7.485 24.884 6.557 24.884 6.557 z" stroke-linecap="round" />
</g>
<g transform="matrix(1 0 0 1 5.29 -9.07)" >
<radialGradient id="SVGID_6Mc3YUlflsXkUB5Mj8PVFw_24" gradientUnits="userSpaceOnUse" gradientTransform="matrix(-0.23 -0.97 0.89 -0.21 98.06 567.54)" cx="560.405" cy="58.344" r="4.741" fx="560.405" fy="58.344">
<stop offset="0%" style="stop-color:rgb(55,219,79);stop-opacity: 1"/>
<stop offset="83.1%" style="stop-color:rgb(46,184,67);stop-opacity: 1"/>
<stop offset="100%" style="stop-color:rgb(44,176,64);stop-opacity: 1"/>
</radialGradient>
<path style="stroke: none; stroke-width: 1; stroke-dasharray: none; stroke-linecap: butt; stroke-dashoffset: 0; stroke-linejoin: miter; stroke-miterlimit: 4; fill: url(#SVGID_6Mc3YUlflsXkUB5Mj8PVFw_24); fill-rule: nonzero; opacity: 1;" transform=" translate(-21.29, -6.93)" d="M 17.674 8.791 C 20.063 7.047000000000001 22.228 6.4430000000000005 24.917 6.589 C 24.917 6.589 23.307000000000002 4.402000000000001 20.437 5.28 C 17.432 6.198 17.674 8.791 17.674 8.791 z" stroke-linecap="round" />
</g>
<g transform="matrix(1 0 0 1 11.25 -6.03)" >
<linearGradient id="SVGID_6Mc3YUlflsXkUB5Mj8PVFx_25" gradientUnits="userSpaceOnUse" gradientTransform="matrix(0.93 0.38 -0.38 0.93 -19.72 10.79)" x1="40.523" y1="-21.892" x2="46.325" y2="-16.707">
<stop offset="0%" style="stop-color:rgb(28,148,46);stop-opacity: 1"/>
<stop offset="45.9%" style="stop-color:rgb(84,214,103);stop-opacity: 1"/>
<stop offset="100%" style="stop-color:rgb(49,173,68);stop-opacity: 1"/>
</linearGradient>
<path style="stroke: none; stroke-width: 1; stroke-dasharray: none; stroke-linecap: butt; stroke-dashoffset: 0; stroke-linejoin: miter; stroke-miterlimit: 4; fill: url(#SVGID_6Mc3YUlflsXkUB5Mj8PVFx_25); fill-rule: nonzero; opacity: 1;" transform=" translate(-27.25, -9.97)" d="M 24.73 6.522 C 27.149 8.591000000000001 28.389 10.701 29.055 13.539000000000001 C 29.055 13.539000000000001 30.704 11.333000000000002 28.985 8.554000000000002 C 27.186 5.645 24.73 6.522 24.73 6.522 z" stroke-linecap="round" />
</g>
<g transform="matrix(1 0 0 1 5.66 -11.19)" >
<linearGradient id="SVGID_6Mc3YUlflsXkUB5Mj8PVFy_26" gradientUnits="userSpaceOnUse" gradientTransform="matrix(0.99 0.13 -0.13 0.99 -6.22 4.59)" x1="31.373" y1="-3.455" x2="22.368" y2="-4.245">
<stop offset="0%" style="stop-color:rgb(28,148,46);stop-opacity: 1"/>
<stop offset="45.9%" style="stop-color:rgb(84,214,103);stop-opacity: 1"/>
<stop offset="100%" style="stop-color:rgb(49,173,68);stop-opacity: 1"/>
</linearGradient>
<path style="stroke: none; stroke-width: 1; stroke-dasharray: none; stroke-linecap: butt; stroke-dashoffset: 0; stroke-linejoin: miter; stroke-miterlimit: 4; fill: url(#SVGID_6Mc3YUlflsXkUB5Mj8PVFy_26); fill-rule: nonzero; opacity: 1;" transform=" translate(-21.66, -4.81)" d="M 18.296 4.252 C 21.055 4.318 23.036 5.067 25.021 6.628 C 25.021 6.628 24.95 4.213 22.283 3.275 C 19.49 2.294 18.296 4.252 18.296 4.252 z" stroke-linecap="round" />
</g>
<g transform="matrix(1 0 0 1 9.24 -5.37)" >
<linearGradient id="SVGID_6Mc3YUlflsXkUB5Mj8PVFz_27" gradientUnits="userSpaceOnUse" gradientTransform="matrix(0.98 0.21 -0.21 0.98 -10.3 6.99)" x1="35.071" y1="-8.154" x2="36.143" y2="-0.394">
<stop offset="0%" style="stop-color:rgb(28,148,46);stop-opacity: 1"/>
<stop offset="45.9%" style="stop-color:rgb(84,214,103);stop-opacity: 1"/>
<stop offset="100%" style="stop-color:rgb(49,173,68);stop-opacity: 1"/>
</linearGradient>
<path style="stroke: none; stroke-width: 1; stroke-dasharray: none; stroke-linecap: butt; stroke-dashoffset: 0; stroke-linejoin: miter; stroke-miterlimit: 4; fill: url(#SVGID_6Mc3YUlflsXkUB5Mj8PVFz_27); fill-rule: nonzero; opacity: 1;" transform=" translate(-25.24, -10.63)" d="M 24.884 6.557 C 25.38 9.701 24.952 12.111 23.615000000000002 14.702 C 23.615000000000002 14.702 26.302000000000003 14.096 26.8 10.866 C 27.321 7.485 24.884 6.557 24.884 6.557 z" stroke-linecap="round" />
</g>
<g transform="matrix(1 0 0 1 5.29 -9.07)" >
<linearGradient id="SVGID_6Mc3YUlflsXkUB5Mj8PVFA_28" gradientUnits="userSpaceOnUse" gradientTransform="matrix(0.99 0.16 -0.16 0.99 -7.37 5.31)" x1="31.188" y1="-5.356" x2="23.889" y2="0.837">
<stop offset="0%" style="stop-color:rgb(28,148,46);stop-opacity: 1"/>
<stop offset="45.9%" style="stop-color:rgb(84,214,103);stop-opacity: 1"/>
<stop offset="100%" style="stop-color:rgb(49,173,68);stop-opacity: 1"/>
</linearGradient>
<path style="stroke: none; stroke-width: 1; stroke-dasharray: none; stroke-linecap: butt; stroke-dashoffset: 0; stroke-linejoin: miter; stroke-miterlimit: 4; fill: url(#SVGID_6Mc3YUlflsXkUB5Mj8PVFA_28); fill-rule: nonzero; opacity: 1;" transform=" translate(-21.29, -6.93)" d="M 17.674 8.791 C 20.063 7.047000000000001 22.228 6.4430000000000005 24.917 6.589 C 24.917 6.589 23.307000000000002 4.402000000000001 20.437 5.28 C 17.432 6.198 17.674 8.791 17.674 8.791 z" stroke-linecap="round" />
</g>
<g transform="matrix(1 0 0 1 7.38 -4.79)" >
<linearGradient id="SVGID_6Mc3YUlflsXkUB5Mj8PVFB_29" gradientUnits="userSpaceOnUse" gradientTransform="matrix(1 0 0 1 0 0)" x1="23.384" y1="3" x2="23.384" y2="19.418">
<stop offset="0%" style="stop-color:rgb(0,0,0);stop-opacity: 0.02"/>
<stop offset="100%" style="stop-color:rgb(0,0,0);stop-opacity: 0.15"/>
</linearGradient>
<path style="stroke: none; stroke-width: 1; stroke-dasharray: none; stroke-linecap: butt; stroke-dashoffset: 0; stroke-linejoin: miter; stroke-miterlimit: 4; fill: url(#SVGID_6Mc3YUlflsXkUB5Mj8PVFB_29); fill-rule: nonzero; opacity: 1;" transform=" translate(-23.38, -11.21)" d="M 28.985 8.554 C 28.165 7.229 27.212 6.6930000000000005 26.413999999999998 6.498 C 26.72 6.41 27.029999999999998 6.327 27.323999999999998 6.261 C 26.700999999999997 4.678 25.002 4.495 25.002 4.495 C 24.765 4.729 24.639 4.894 24.555 5.123 C 24.18 4.446 23.506999999999998 3.705 22.282 3.2750000000000004 C 21.723 3.079 21.227 3 20.793 3 C 19.06 3 18.296 4.252 18.296 4.252 C 19.992 4.293 21.393 4.593999999999999 22.682 5.18 C 22.398999999999997 5.1129999999999995 22.092 5.072 21.759999999999998 5.072 C 21.354999999999997 5.072 20.912999999999997 5.132 20.435999999999996 5.2780000000000005 C 17.431999999999995 6.197000000000001 17.672999999999995 8.789000000000001 17.672999999999995 8.789000000000001 C 19.726999999999993 7.290000000000001 21.616999999999994 6.637000000000001 23.815999999999995 6.575000000000001 C 21.811 7.596 17 10.882 17 19 C 17 19 17.034 19.012 17.082 19.029 C 17.495 19.177 17.911 19.31 18.341 19.376 C 18.428 19.391000000000002 18.508000000000003 19.402 18.585 19.408 C 18.607 19.41 18.628 19.411 18.650000000000002 19.413 C 18.673000000000002 19.414 18.700000000000003 19.418 18.722 19.418 C 18.722 19.416999999999998 18.722 19.415 18.722 19.413 C 18.771 19.415 18.82 19.416 18.869 19.416 C 19.355 19.416 19.865 19.306 20.416 18.999 C 19.725 10.707999999999998 23.503 8.008 24.973 7.277999999999999 C 25.296 10.072999999999999 24.845 12.312999999999999 23.613999999999997 14.7 C 23.613999999999997 14.7 26.301 14.094 26.798999999999996 10.863999999999999 C 26.955999999999996 9.844 26.841999999999995 9.050999999999998 26.608999999999995 8.436 C 27.834999999999994 9.939 28.588999999999995 11.561 29.053999999999995 13.538 C 29.055 13.54 30.704 11.334 28.985 8.554 z M 25.832 7.088 L 26.377000000000002 8.526 C 26.628000000000004 9.188 26.687 9.962 26.554000000000002 10.827 C 26.221000000000004 12.983 24.885 13.9 24.114 14.256 C 25.189 11.966000000000001 25.521 9.836 25.223 7.25 L 25.182 6.896 L 24.863 7.054 C 23.23 7.865 19.521 10.632 20.155 18.854 C 19.735 19.063 19.314 19.165 18.87 19.165 C 18.824 19.165 18.779 19.163999999999998 18.734 19.162 L 18.645000000000003 19.16 L 18.609 19.157 C 18.539 19.151 18.466 19.141000000000002 18.381 19.126 C 17.986 19.065 17.594 18.942 17.252 18.821 C 17.320999999999998 11.003000000000002 21.936999999999998 7.811000000000002 23.930999999999997 6.797000000000002 L 24.923 6.293000000000003 L 23.811 6.3240000000000025 C 21.674 6.3850000000000025 19.844 6.996000000000002 17.941 8.294000000000002 C 18.031 7.552000000000002 18.476 6.138000000000002 20.511 5.515000000000002 C 20.935 5.3850000000000025 21.355999999999998 5.320000000000002 21.762 5.320000000000002 C 22.054000000000002 5.320000000000002 22.344 5.354000000000002 22.626 5.421000000000002 L 22.787000000000003 4.950000000000002 C 21.586000000000002 4.404000000000002 20.313000000000002 4.104000000000002 18.814000000000004 4.020000000000002 C 19.156000000000002 3.6880000000000024 19.799000000000003 3.247000000000002 20.794000000000004 3.247000000000002 C 21.234000000000005 3.247000000000002 21.707000000000004 3.335000000000002 22.200000000000003 3.5080000000000022 C 23.17 3.8490000000000024 23.889000000000003 4.432000000000002 24.337000000000003 5.242000000000003 L 24.602000000000004 5.721000000000003 L 24.790000000000003 5.2070000000000025 C 24.847 5.053000000000003 24.927000000000003 4.932000000000002 25.091 4.7600000000000025 C 25.434 4.825000000000003 26.444000000000003 5.096000000000003 26.971 6.086000000000002 C 26.765 6.138000000000002 26.554 6.195000000000002 26.346 6.255000000000002 L 25.441 6.5150000000000015 L 26.355999999999998 6.738000000000001 C 27.305999999999997 6.9700000000000015 28.119999999999997 7.624000000000001 28.773999999999997 8.682000000000002 C 29.921999999999997 10.538000000000002 29.500999999999998 12.103000000000002 29.145999999999997 12.875000000000002 C 28.654999999999998 11.095000000000002 27.903 9.621000000000002 26.805999999999997 8.276000000000002 L 25.832 7.088 z" stroke-linecap="round" />
</g>
</g>
</g>
</svg>