<svg id='Beach_With_Umbrella_24' width='24' height='24' viewBox='0 0 24 24' xmlns='http://www.w3.org/2000/svg' xmlns:xlink='http://www.w3.org/1999/xlink'><rect width='24' height='24' stroke='none' fill='#000000' opacity='0'/>


<g transform="matrix(0.42 0 0 0.42 12 12)" >
<g style="" >
<g transform="matrix(1 0 0 1 0.15 12.4)" >
<radialGradient id="SVGID_mDbZfuTi679D48vDqrhHma_1" gradientUnits="userSpaceOnUse" gradientTransform="matrix(1 0 0 0.35 -24.15 -14.57)" cx="23.731" cy="33.837" r="21.364" fx="23.731" fy="33.837">
<stop offset="11.700000000000001%" style="stop-color:rgb(173,245,255);stop-opacity: 1"/>
<stop offset="24.7%" style="stop-color:rgb(167,242,255);stop-opacity: 1"/>
<stop offset="42.699999999999996%" style="stop-color:rgb(149,234,255);stop-opacity: 1"/>
<stop offset="63.6%" style="stop-color:rgb(119,221,255);stop-opacity: 1"/>
<stop offset="86.7%" style="stop-color:rgb(78,203,255);stop-opacity: 1"/>
<stop offset="100%" style="stop-color:rgb(51,191,255);stop-opacity: 1"/>
</radialGradient>
<ellipse style="stroke: none; stroke-width: 1; stroke-dasharray: none; stroke-linecap: butt; stroke-dashoffset: 0; stroke-linejoin: miter; stroke-miterlimit: 4; fill: url(#SVGID_mDbZfuTi679D48vDqrhHma_1); fill-rule: nonzero; opacity: 1;" cx="0" cy="0" rx="18.755" ry="6.175" />
</g>
<g transform="matrix(1 0 0 1 -0.02 9.81)" >
<path style="stroke: none; stroke-width: 1; stroke-dasharray: none; stroke-linecap: butt; stroke-dashoffset: 0; stroke-linejoin: miter; stroke-miterlimit: 4; fill: rgb(227,252,255); fill-rule: nonzero; opacity: 1;" transform=" translate(-23.98, -33.81)" d="M 9.96 32.351 C 9.96 32.351 7.872000000000001 32.97 7.872000000000001 34.012 C 7.872000000000001 35.624 10.063 35.805 13.406 35.805 C 14.175 35.805 14.699 36.073 15.363000000000001 36.412 C 16.217000000000002 36.849 17.28 37.391999999999996 19.055 37.391999999999996 C 21.509 37.391999999999996 22.743 36.98 23.832 36.61599999999999 C 24.839000000000002 36.279999999999994 25.71 35.98899999999999 27.509 35.98899999999999 C 28.981 35.98899999999999 29.867 36.09199999999999 30.804000000000002 36.20099999999999 C 31.89 36.32699999999999 33.122 36.468999999999994 35.409000000000006 36.468999999999994 C 39.74400000000001 36.468999999999994 40.081 34.455999999999996 40.081 33.839999999999996 C 40.081 32.962999999999994 38.790000000000006 32.535999999999994 38.790000000000006 32.535999999999994 C 38.790000000000006 32.535999999999994 30.795000000000005 30.221999999999994 24.149000000000008 30.221999999999994 C 17.23 30.222 9.96 32.351 9.96 32.351 z" stroke-linecap="round" />
</g>
<g transform="matrix(1 0 0 1 -0.02 8.22)" >
<radialGradient id="SVGID_mDbZfuTi679D48vDqrhHmb_2" gradientUnits="userSpaceOnUse" gradientTransform="matrix(1 0 0 0.29 0 22.98)" cx="16.962" cy="32.291" r="18.08" fx="16.962" fy="32.291">
<stop offset="0%" style="stop-color:rgb(222,224,110);stop-opacity: 1"/>
<stop offset="54.2%" style="stop-color:rgb(242,194,2);stop-opacity: 1"/>
<stop offset="100%" style="stop-color:rgb(209,136,1);stop-opacity: 1"/>
</radialGradient>
<path style="stroke: none; stroke-width: 1; stroke-dasharray: none; stroke-linecap: butt; stroke-dashoffset: 0; stroke-linejoin: miter; stroke-miterlimit: 4; fill: url(#SVGID_mDbZfuTi679D48vDqrhHmb_2); fill-rule: nonzero; opacity: 1;" transform=" translate(-23.98, -32.22)" d="M 19.054 36.572 C 23.558 36.572 23.520999999999997 35.169000000000004 27.508 35.169000000000004 C 30.756999999999998 35.169000000000004 31.2 35.649 35.409 35.649 C 37.846 35.649 39.260999999999996 34.948 39.260999999999996 33.84 C 39.260999999999996 31.040000000000003 32.419 27.859 23.976999999999997 27.859 C 16.912999999999997 27.859 8.692999999999996 30.813000000000002 8.692999999999996 33.84 C 8.692999999999996 34.578 9.307999999999996 34.98500000000001 13.405999999999995 34.98500000000001 C 15.51 34.984 16.138 36.572 19.054 36.572 z" stroke-linecap="round" />
</g>
<g transform="matrix(1 0 0 1 6.64 5.89)" >
<linearGradient id="SVGID_mDbZfuTi679D48vDqrhHmc_3" gradientUnits="userSpaceOnUse" gradientTransform="matrix(1 0 0 1 0 0)" x1="29.479" y1="33.625" x2="32.418" y2="23.284">
<stop offset="28.9%" style="stop-color:rgb(64,27,1);stop-opacity: 1"/>
<stop offset="33.5%" style="stop-color:rgb(74,37,1);stop-opacity: 0.887"/>
<stop offset="41.3%" style="stop-color:rgb(102,63,1);stop-opacity: 0.694"/>
<stop offset="51.5%" style="stop-color:rgb(147,105,1);stop-opacity: 0.442"/>
<stop offset="63.6%" style="stop-color:rgb(209,163,2);stop-opacity: 0.144"/>
<stop offset="69.5%" style="stop-color:rgb(242,194,2);stop-opacity: 0"/>
</linearGradient>
<path style="stroke: none; stroke-width: 1; stroke-dasharray: none; stroke-linecap: butt; stroke-dashoffset: 0; stroke-linejoin: miter; stroke-miterlimit: 4; fill: url(#SVGID_mDbZfuTi679D48vDqrhHmc_3); fill-rule: nonzero; opacity: 0.57;" transform=" translate(-30.64, -29.89)" d="M 23.977 27.859 C 23.955000000000002 27.859 23.932 27.861 23.91 27.861 C 24.724 28.603 26.708 29.389 29.384 30.034 L 25.015 31.58 L 26.494 31.927999999999997 L 30.708 30.333 C 31.409 30.476 32.229 30.630999999999997 32.985 30.746 C 34.553 30.985 36.043 31.128999999999998 37.378 31.186999999999998 C 34.78 29.349 29.754 27.859 23.977 27.859 z" stroke-linecap="round" />
</g>
<g transform="matrix(1 0 0 1 2.58 1.52)" >
<radialGradient id="SVGID_mDbZfuTi679D48vDqrhHmd_4" gradientUnits="userSpaceOnUse" gradientTransform="matrix(1 0.1 -0.21 2.07 6.16 -34.01)" cx="26.189" cy="29.298" r="3.191" fx="26.189" fy="29.298">
<stop offset="0%" style="stop-color:rgb(181,90,43);stop-opacity: 1"/>
<stop offset="11.1%" style="stop-color:rgb(166,83,40);stop-opacity: 1"/>
<stop offset="51.6%" style="stop-color:rgb(118,59,28);stop-opacity: 1"/>
<stop offset="82.5%" style="stop-color:rgb(88,44,21);stop-opacity: 1"/>
<stop offset="100%" style="stop-color:rgb(77,38,18);stop-opacity: 1"/>
</radialGradient>
<path style="stroke: none; stroke-width: 1; stroke-dasharray: none; stroke-linecap: butt; stroke-dashoffset: 0; stroke-linejoin: miter; stroke-miterlimit: 4; fill: url(#SVGID_mDbZfuTi679D48vDqrhHmd_4); fill-rule: nonzero; opacity: 1;" transform=" translate(-26.58, -25.52)" d="M 26.617 18.919 L 24.996000000000002 31.854 L 25 31.854 C 25 31.855999999999998 24.996 31.858 24.996 31.86 C 24.996 32.002 25.345 32.117 25.776 32.117 C 26.207 32.117 26.556 32.001999999999995 26.556 31.859999999999996 L 28.156000000000002 19.112999999999996 L 26.617 18.919 z" stroke-linecap="round" />
</g>
<g transform="matrix(1 0 0 1 3.98 -14.91)" >
<path style="stroke: none; stroke-width: 1; stroke-dasharray: none; stroke-linecap: butt; stroke-dashoffset: 0; stroke-linejoin: miter; stroke-miterlimit: 4; fill: rgb(255,61,0); fill-rule: nonzero; opacity: 1;" transform=" translate(-27.98, -9.09)" d="M 27.24 10.021 C 27.692 9.384 28.183999999999997 8.758000000000001 28.723 8.156 C 28.184 8.758 27.691 9.385 27.24 10.021 z" stroke-linecap="round" />
</g>
<g transform="matrix(1 0 0 1 -3.15 -10.81)" >
<path style="stroke: none; stroke-width: 1; stroke-dasharray: none; stroke-linecap: butt; stroke-dashoffset: 0; stroke-linejoin: miter; stroke-miterlimit: 4; fill: rgb(255,61,0); fill-rule: nonzero; opacity: 1;" transform=" translate(-20.85, -13.19)" d="M 28.769 8.092 C 18.63 6.880000000000001 12.927999999999999 15.726 12.927999999999999 15.726 C 12.927999999999999 15.726 14.029 15.690000000000001 14.925999999999998 16.448 C 15.989999999999998 17.347 16.151999999999997 18.397000000000002 16.151999999999997 18.397000000000002 C 16.151999999999997 18.397000000000002 20.7 9.142 28.769 8.092 z" stroke-linecap="round" />
</g>
<g transform="matrix(1 0 0 1 5.31 -14.72)" >
<path style="stroke: none; stroke-width: 1; stroke-dasharray: none; stroke-linecap: butt; stroke-dashoffset: 0; stroke-linejoin: miter; stroke-miterlimit: 4; fill: rgb(255,61,0); fill-rule: nonzero; opacity: 1;" transform=" translate(-29.31, -9.28)" d="M 28.775 8.096 C 29.183999999999997 8.875 29.534 9.669 29.834 10.461 C 29.835 10.462 29.835 10.463000000000001 29.836 10.464 C 29.536 9.671 29.185 8.876 28.775 8.096 z" stroke-linecap="round" />
</g>
<g transform="matrix(1 0 0 1 11.5 -9.36)" >
<path style="stroke: none; stroke-width: 1; stroke-dasharray: none; stroke-linecap: butt; stroke-dashoffset: 0; stroke-linejoin: miter; stroke-miterlimit: 4; fill: rgb(255,61,0); fill-rule: nonzero; opacity: 1;" transform=" translate(-35.5, -14.64)" d="M 28.769 8.092 C 36.327999999999996 11.105 38.443 21.198 38.443 21.198 C 38.443 21.198 38.86 20.221 40.113 19.613 C 41.17 19.099999999999998 42.228 19.408 42.228 19.408 C 42.228 19.408 38.892 9.427 28.769 8.092 z" stroke-linecap="round" />
</g>
<g transform="matrix(1 0 0 1 7.52 -2.29)" >
<path style="stroke: none; stroke-width: 1; stroke-dasharray: none; stroke-linecap: butt; stroke-dashoffset: 0; stroke-linejoin: miter; stroke-miterlimit: 4; fill: rgb(228,231,237); fill-rule: nonzero; opacity: 1;" transform=" translate(-31.52, -21.71)" d="M 31.519 21.704 C 31.519 21.705000000000002 31.523 21.712 31.523 21.712 C 31.523 21.712 31.527 21.709 31.528 21.709 C 31.525 21.707 31.524 21.707 31.519 21.704 z" stroke-linecap="round" />
</g>
<g transform="matrix(1 0 0 1 9.61 -9.1)" >
<path style="stroke: none; stroke-width: 1; stroke-dasharray: none; stroke-linecap: butt; stroke-dashoffset: 0; stroke-linejoin: miter; stroke-miterlimit: 4; fill: rgb(243,246,252); fill-rule: nonzero; opacity: 1;" transform=" translate(-33.61, -14.9)" d="M 28.769 8.092 C 28.769 8.096 28.769 8.099 28.767999999999997 8.103 C 28.769999999999996 8.1 28.772999999999996 8.097999999999999 28.775 8.095 C 32.045 14.32 31.554 21.465 31.537 21.701999999999998 C 31.612 21.65 32.946999999999996 20.732999999999997 35.184 20.671 C 37.193999999999996 20.615 38.443 21.198 38.443 21.198 C 38.443 21.198 36.328 11.106 28.769 8.092 z" stroke-linecap="round" />
</g>
<g transform="matrix(1 0 0 1 -1.54 -9.65)" >
<path style="stroke: none; stroke-width: 1; stroke-dasharray: none; stroke-linecap: butt; stroke-dashoffset: 0; stroke-linejoin: miter; stroke-miterlimit: 4; fill: rgb(243,246,252); fill-rule: nonzero; opacity: 1;" transform=" translate(-22.46, -14.35)" d="M 28.769 8.092 C 20.7 9.142 16.153 18.398 16.153 18.398 C 16.153 18.398 17.506999999999998 18.142 19.441 18.693 C 21.657 19.324 22.730999999999998 20.607000000000003 22.730999999999998 20.607000000000003 C 22.730999999999998 20.607000000000003 23.985999999999997 13.416000000000004 28.766 8.106000000000003 C 28.767 8.102 28.768 8.097 28.769 8.092 z" stroke-linecap="round" />
</g>
<g transform="matrix(1 0 0 1 3.15 -9.1)" >
<path style="stroke: none; stroke-width: 1; stroke-dasharray: none; stroke-linecap: butt; stroke-dashoffset: 0; stroke-linejoin: miter; stroke-miterlimit: 4; fill: rgb(255,61,0); fill-rule: nonzero; opacity: 1;" transform=" translate(-27.15, -14.9)" d="M 28.775 8.096 C 23.987 13.407 22.729999999999997 20.608 22.729999999999997 20.608 C 22.729999999999997 20.608 24.598999999999997 20.097 27.224999999999998 20.427 C 29.851 20.756999999999998 31.535999999999998 21.714 31.535999999999998 21.714 C 31.535999999999998 21.714 32.1 14.426 28.775 8.096 z" stroke-linecap="round" />
</g>
<g transform="matrix(1 0 0 1 3.58 -9.15)" >
<radialGradient id="SVGID_mDbZfuTi679D48vDqrhHme_5" gradientUnits="userSpaceOnUse" gradientTransform="matrix(-1 -0.02 0.01 -0.72 43.87 24.08)" cx="22.019" cy="13.824" r="17.782" fx="22.019" fy="13.824">
<stop offset="0%" style="stop-color:rgb(255,255,255);stop-opacity: 0"/>
<stop offset="41%" style="stop-color:rgb(187,160,145);stop-opacity: 0.41"/>
<stop offset="81.89999999999999%" style="stop-color:rgb(122,70,41);stop-opacity: 0.819"/>
<stop offset="100%" style="stop-color:rgb(97,35,0);stop-opacity: 1"/>
</radialGradient>
<path style="stroke: none; stroke-width: 1; stroke-dasharray: none; stroke-linecap: butt; stroke-dashoffset: 0; stroke-linejoin: miter; stroke-miterlimit: 4; fill: url(#SVGID_mDbZfuTi679D48vDqrhHme_5); fill-rule: nonzero; opacity: 0.54;" transform=" translate(-27.58, -14.85)" d="M 28.769 8.092 C 28.769 8.096 28.769 8.099 28.767999999999997 8.103 C 28.769999999999996 8.1 28.772999999999996 8.097999999999999 28.775 8.095 C 28.979999999999997 8.485000000000001 28.979999999999997 8.485000000000001 28.775 8.095 C 28.980999999999998 8.487 28.980999999999998 8.487 28.775 8.095 C 28.698999999999998 8.180000000000001 28.692999999999998 8.187000000000001 28.766 8.106 C 28.767 8.102 28.768 8.097 28.769 8.092 C 18.63 6.880000000000001 12.927999999999999 15.726 12.927999999999999 15.726 C 12.927999999999999 15.726 14.029 15.690000000000001 14.925999999999998 16.448 C 15.989999999999998 17.347 16.151999999999997 18.397000000000002 16.151999999999997 18.397000000000002 C 16.151999999999997 18.397000000000002 17.505999999999997 18.141000000000002 19.439999999999998 18.692000000000004 C 21.654999999999998 19.323000000000004 22.729999999999997 20.606000000000005 22.729999999999997 20.606000000000005 L 22.729999999999997 20.606000000000005 L 22.729999999999997 20.606000000000005 L 22.729999999999997 20.606000000000005 L 22.729999999999997 20.606000000000005 C 22.729999999999997 20.606000000000005 24.598999999999997 20.096000000000004 27.224999999999998 20.426000000000005 C 29.778 20.747000000000007 31.427 21.653000000000006 31.517999999999997 21.704000000000004 C 31.519 21.705000000000005 31.522 21.712000000000003 31.522 21.712000000000003 C 31.522 21.712000000000003 31.526 21.709000000000003 31.526999999999997 21.709000000000003 C 31.528 21.709000000000003 31.535999999999998 21.714000000000002 31.535999999999998 21.714000000000002 C 31.535999999999998 21.714000000000002 31.537999999999997 21.687 31.538999999999998 21.673000000000002 C 31.538999999999998 21.680000000000003 31.537 21.699 31.537 21.703000000000003 C 31.612 21.651000000000003 32.946999999999996 20.734 35.184 20.672000000000004 C 37.193999999999996 20.616000000000003 38.443 21.199000000000005 38.443 21.199000000000005 C 38.443 21.199000000000005 38.86 20.222000000000005 40.113 19.614000000000004 C 41.17 19.101000000000003 42.228 19.409000000000006 42.228 19.409000000000006 C 42.228 19.409000000000006 38.892 9.427 28.769 8.092 z" stroke-linecap="round" />
</g>
<g transform="matrix(1 0 0 1 4.6 -16.49)" >
<radialGradient id="SVGID_mDbZfuTi679D48vDqrhHmf_6" gradientUnits="userSpaceOnUse" gradientTransform="matrix(1.76 0.22 -0.22 1.78 -13.01 -6.07)" cx="24.188" cy="4.406" r="0.517" fx="24.188" fy="4.406">
<stop offset="0%" style="stop-color:rgb(181,90,43);stop-opacity: 1"/>
<stop offset="36.8%" style="stop-color:rgb(148,74,35);stop-opacity: 1"/>
<stop offset="76.8%" style="stop-color:rgb(118,59,28);stop-opacity: 1"/>
<stop offset="99.4%" style="stop-color:rgb(107,53,25);stop-opacity: 1"/>
</radialGradient>
<path style="stroke: none; stroke-width: 1; stroke-dasharray: none; stroke-linecap: butt; stroke-dashoffset: 0; stroke-linejoin: miter; stroke-miterlimit: 4; fill: url(#SVGID_mDbZfuTi679D48vDqrhHmf_6); fill-rule: nonzero; opacity: 1;" transform=" translate(-28.6, -7.51)" d="M 29.502 7.261 C 29.535 7.002 29.307 6.555 28.761 6.487 C 28.209 6.418 27.864 6.792 27.832 7.052 C 27.832 7.052 27.696 8.211 27.696 8.212 C 27.685000000000002 8.297 28.046000000000003 8.456 28.507 8.514 C 28.968 8.572 29.355 8.508 29.366 8.421999999999999 C 29.367 8.42 29.502 7.261 29.502 7.261 z" stroke-linecap="round" />
</g>
</g>
</g>
</svg>