<svg id='Diamond_Ring_24' width='24' height='24' viewBox='0 0 24 24' xmlns='http://www.w3.org/2000/svg' xmlns:xlink='http://www.w3.org/1999/xlink'><rect width='24' height='24' stroke='none' fill='#000000' opacity='0'/>


<g transform="matrix(0.5 0 0 0.5 12 12)" >
<g style="" >
<g transform="matrix(1 0 0 1 0 -18)" >
<path style="stroke: none; stroke-width: 1; stroke-dasharray: none; stroke-linecap: butt; stroke-dashoffset: 0; stroke-linejoin: miter; stroke-miterlimit: 4; fill: rgb(151,201,255); fill-rule: nonzero; opacity: 1;" transform=" translate(-20, -2)" d="M 17 0 L 23 0 L 23 4 L 17 4 z" stroke-linecap="round" />
</g>
<g transform="matrix(1 0 0 1 0 -12.5)" >
<path style="stroke: none; stroke-width: 1; stroke-dasharray: none; stroke-linecap: butt; stroke-dashoffset: 0; stroke-linejoin: miter; stroke-miterlimit: 4; fill: rgb(88,156,219); fill-rule: nonzero; opacity: 1;" transform=" translate(-20, -7.5)" d="M 21 11 L 19 11 L 17 4 L 23 4 z" stroke-linecap="round" />
</g>
<g transform="matrix(1 0 0 1 -4.5 -12.5)" >
<path style="stroke: none; stroke-width: 1; stroke-dasharray: none; stroke-linecap: butt; stroke-dashoffset: 0; stroke-linejoin: miter; stroke-miterlimit: 4; fill: rgb(151,201,255); fill-rule: nonzero; opacity: 1;" transform=" translate(-15.5, -7.5)" d="M 19 11 L 17 11 L 12 4 L 17 4 z" stroke-linecap="round" />
</g>
<g transform="matrix(1 0 0 1 4.5 -12.5)" >
<path style="stroke: none; stroke-width: 1; stroke-dasharray: none; stroke-linecap: butt; stroke-dashoffset: 0; stroke-linejoin: miter; stroke-miterlimit: 4; fill: rgb(78,122,181); fill-rule: nonzero; opacity: 1;" transform=" translate(-24.5, -7.5)" d="M 21 11 L 23 11 L 28 4 L 23 4 z" stroke-linecap="round" />
</g>
<g transform="matrix(1 0 0 1 5.5 -18)" >
<path style="stroke: none; stroke-width: 1; stroke-dasharray: none; stroke-linecap: butt; stroke-dashoffset: 0; stroke-linejoin: miter; stroke-miterlimit: 4; fill: rgb(88,156,219); fill-rule: nonzero; opacity: 1;" transform=" translate(-25.5, -2)" d="M 23 0 L 23 0 L 28 4 L 23 4 z" stroke-linecap="round" />
</g>
<g transform="matrix(1 0 0 1 -5.5 -18)" >
<path style="stroke: none; stroke-width: 1; stroke-dasharray: none; stroke-linecap: butt; stroke-dashoffset: 0; stroke-linejoin: miter; stroke-miterlimit: 4; fill: rgb(161,226,255); fill-rule: nonzero; opacity: 1;" transform=" translate(-14.5, -2)" d="M 17 0 L 17 0 L 12 4 L 17 4 z" stroke-linecap="round" />
</g>
<g transform="matrix(1 0 0 1 0 -14.5)" >
<path style="stroke: none; stroke-width: 1; stroke-dasharray: none; stroke-linecap: butt; stroke-dashoffset: 0; stroke-linejoin: miter; stroke-miterlimit: 4; fill: rgb(78,122,181); fill-rule: nonzero; opacity: 1;" transform=" translate(-20, -5.5)" d="M 23.073 1 L 26.661 4.154 L 22.485 10 L 21 10 L 19 10 L 17.515 10 L 13.339 4.154 L 16.927 1 L 23.073 1 M 23.45 0 L 16.549999999999997 0 L 12 4 L 17 11 L 19 11 L 21 11 L 23 11 L 28 4 L 23.45 0 L 23.45 0 z" stroke-linecap="round" />
</g>
<g transform="matrix(1 0 0 1 0 -10)" >
<path style="stroke: none; stroke-width: 1; stroke-dasharray: none; stroke-linecap: butt; stroke-dashoffset: 0; stroke-linejoin: miter; stroke-miterlimit: 4; fill: rgb(161,106,74); fill-rule: nonzero; opacity: 1;" transform=" translate(-20, -10)" d="M 25 11 L 15 11 C 14.45 11 14 10.55 14 10 L 14 10 C 14 9.45 14.45 9 15 9 L 25 9 C 25.55 9 26 9.45 26 10 L 26 10 C 26 10.55 25.55 11 25 11 z" stroke-linecap="round" />
</g>
<g transform="matrix(1 0 0 1 0 5)" >
<path style="stroke: none; stroke-width: 1; stroke-dasharray: none; stroke-linecap: butt; stroke-dashoffset: 0; stroke-linejoin: miter; stroke-miterlimit: 4; fill: rgb(245,206,133); fill-rule: nonzero; opacity: 1;" transform=" translate(-20, -25)" d="M 20 39.5 C 12.004999999999999 39.5 5.5 32.995 5.5 25 C 5.5 17.005000000000003 12.005 10.5 20 10.5 C 27.994999999999997 10.5 34.5 17.005 34.5 25 C 34.5 32.995000000000005 27.995 39.5 20 39.5 z M 20 14.5 C 14.21 14.5 9.5 19.21 9.5 25 C 9.5 30.79 14.21 35.5 20 35.5 C 25.79 35.5 30.5 30.79 30.5 25 C 30.5 19.21 25.79 14.5 20 14.5 z" stroke-linecap="round" />
</g>
<g transform="matrix(1 0 0 1 0 5)" >
<path style="stroke: none; stroke-width: 1; stroke-dasharray: none; stroke-linecap: butt; stroke-dashoffset: 0; stroke-linejoin: miter; stroke-miterlimit: 4; fill: rgb(161,106,74); fill-rule: nonzero; opacity: 1;" transform=" translate(-20, -25)" d="M 20 11 C 27.72 11 34 17.28 34 25 C 34 32.72 27.72 39 20 39 C 12.280000000000001 39 6 32.72 6 25 C 6 17.28 12.28 11 20 11 M 20 36 C 26.065 36 31 31.065 31 25 C 31 18.935 26.065 14 20 14 C 13.934999999999999 14 9 18.935 9 25 C 9 31.065 13.935 36 20 36 M 20 10 C 11.709 10 5 16.709 5 25 C 5 33.291 11.709 40 20 40 C 28.291 40 35 33.291 35 25 C 35 16.709 28.291 10 20 10 L 20 10 z M 20 35 C 14.486 35 10 30.514 10 25 C 10 19.486 14.486 15 20 15 C 25.514 15 30 19.486 30 25 C 30 30.514 25.514 35 20 35 L 20 35 z" stroke-linecap="round" />
</g>
</g>
</g>
</svg>