<svg id='Wedding_Couple_24' width='24' height='24' viewBox='0 0 24 24' xmlns='http://www.w3.org/2000/svg' xmlns:xlink='http://www.w3.org/1999/xlink'><rect width='24' height='24' stroke='none' fill='#000000' opacity='0'/>


<g transform="matrix(0.8 0 0 0.8 12 12)" >
<g style="" >
<g transform="matrix(1 0 0 1 0 -9.12)" >
<path style="stroke: none; stroke-width: 1; stroke-dasharray: none; stroke-linecap: butt; stroke-dashoffset: 0; stroke-linejoin: miter; stroke-miterlimit: 4; fill: rgb(255,128,140); fill-rule: nonzero; opacity: 1;" transform=" translate(-12, -3.38)" d="M 12.357 6.12297 C 12.3105 6.17044 12.2549 6.20815 12.1936 6.2339 C 12.1323 6.25964 12.0665 6.2729 12 6.2729 C 11.9335 6.2729 11.8677 6.25964 11.8064 6.2339 C 11.7451 6.20815 11.6896 6.17044 11.643 6.12297 L 9.017 3.43897 C 8.75549 3.18571 8.58219 2.85518 8.5226 2.49604 C 8.46301 2.1369 8.52029 1.76812 8.686 1.44397 L 8.686 1.44397 C 8.81503 1.19768 8.9998 0.984937 9.2256 0.822696 C 9.4514 0.660455 9.71198 0.553207 9.98657 0.509498 C 10.2612 0.46579 10.5422 0.486831 10.8072 0.570944 C 11.0722 0.655057 11.3139 0.799916 11.513 0.993974 L 12 1.47197 L 12.487 0.993974 C 12.6861 0.799916 12.9278 0.655057 13.1928 0.570944 C 13.4579 0.486831 13.7389 0.46579 14.0134 0.509498 C 14.288 0.553207 14.5486 0.660455 14.7744 0.822696 C 15.0002 0.984937 15.185 1.19768 15.314 1.44397 L 15.314 1.44397 C 15.4809 1.76869 15.5388 2.13851 15.4792 2.49871 C 15.4196 2.85891 15.2456 3.19035 14.983 3.44397 L 12.357 6.12297 Z" stroke-linecap="round" />
</g>
<g transform="matrix(1 0 0 1 0 -10.55)" >
<path style="stroke: none; stroke-width: 1; stroke-dasharray: none; stroke-linecap: butt; stroke-dashoffset: 0; stroke-linejoin: miter; stroke-miterlimit: 4; fill: rgb(255,191,197); fill-rule: nonzero; opacity: 1;" transform=" translate(-12, -1.95)" d="M 12.487 0.993974 L 12 1.47197 L 11.513 0.993974 C 11.3139 0.799916 11.0722 0.655057 10.8072 0.570944 C 10.5421 0.486831 10.2611 0.46579 9.98656 0.509498 C 9.71198 0.553207 9.4514 0.660455 9.2256 0.822696 C 8.9998 0.984937 8.81502 1.19768 8.686 1.44397 C 8.58412 1.64913 8.52534 1.87298 8.5133 2.10173 C 8.50127 2.33047 8.53622 2.55926 8.616 2.77397 C 9.69169 3.20485 10.8413 3.42124 12 3.41097 C 13.1587 3.42124 14.3083 3.20485 15.384 2.77397 C 15.4638 2.55926 15.4987 2.33047 15.4867 2.10173 C 15.4747 1.87298 15.4159 1.64913 15.314 1.44397 C 15.185 1.19768 15.0002 0.984937 14.7744 0.822696 C 14.5486 0.660455 14.288 0.553207 14.0134 0.509498 C 13.7388 0.46579 13.4578 0.486831 13.1928 0.570944 C 12.9278 0.655057 12.6861 0.799916 12.487 0.993974 L 12.487 0.993974 Z" stroke-linecap="round" />
</g>
<g transform="matrix(1 0 0 1 -5 -2.24)" >
<path style="stroke: rgb(25,25,25); stroke-width: 1; stroke-dasharray: none; stroke-linecap: round; stroke-dashoffset: 0; stroke-linejoin: round; stroke-miterlimit: 4; fill: rgb(255,221,161); fill-rule: nonzero; opacity: 1;" transform=" translate(-7, -10.26)" d="M 7 12.512 C 8.24264 12.512 9.25 11.5047 9.25 10.262 C 9.25 9.01938 8.24264 8.01202 7 8.01202 C 5.75736 8.01202 4.75 9.01938 4.75 10.262 C 4.75 11.5047 5.75736 12.512 7 12.512 Z" stroke-linecap="round" />
</g>
<g transform="matrix(1 0 0 1 -5 6.01)" >
<path style="stroke: rgb(25,25,25); stroke-width: 1; stroke-dasharray: none; stroke-linecap: round; stroke-dashoffset: 0; stroke-linejoin: round; stroke-miterlimit: 4; fill: rgb(178,178,178); fill-rule: nonzero; opacity: 1;" transform=" translate(-7, -18.51)" d="M 7 13.511 C 6.20435 13.511 5.44129 13.8271 4.87868 14.3897 C 4.31607 14.9523 4 15.7153 4 16.511 L 4 19.011 L 5.5 19.011 L 6 23.511 L 8 23.511 L 8.5 19.011 L 10 19.011 L 10 16.511 C 10 15.7153 9.68393 14.9523 9.12132 14.3897 C 8.55871 13.8271 7.79565 13.511 7 13.511 L 7 13.511 Z" stroke-linecap="round" />
</g>
<g transform="matrix(1 0 0 1 5 -2.24)" >
<path style="stroke: rgb(25,25,25); stroke-width: 1; stroke-dasharray: none; stroke-linecap: round; stroke-dashoffset: 0; stroke-linejoin: round; stroke-miterlimit: 4; fill: rgb(255,221,161); fill-rule: nonzero; opacity: 1;" transform=" translate(-17, -10.26)" d="M 17 12.512 C 18.2426 12.512 19.25 11.5047 19.25 10.262 C 19.25 9.01938 18.2426 8.01202 17 8.01202 C 15.7574 8.01202 14.75 9.01938 14.75 10.262 C 14.75 11.5047 15.7574 12.512 17 12.512 Z" stroke-linecap="round" />
</g>
<g transform="matrix(1 0 0 1 5 6.01)" >
<path style="stroke: rgb(25,25,25); stroke-width: 1; stroke-dasharray: none; stroke-linecap: round; stroke-dashoffset: 0; stroke-linejoin: round; stroke-miterlimit: 4; fill: rgb(255,255,255); fill-rule: nonzero; opacity: 1;" transform=" translate(-17, -18.51)" d="M 21 20.512 L 19.549 15.435 C 19.3913 14.8803 19.0571 14.3921 18.5969 14.0445 C 18.1367 13.6969 17.5757 13.5088 16.999 13.5088 C 16.4223 13.5088 15.8613 13.6969 15.4011 14.0445 C 14.9409 14.3921 14.6067 14.8803 14.449 15.435 L 13 20.512 L 15.667 20.512 L 16 23.512 L 18 23.512 L 18.333 20.512 L 21 20.512 Z" stroke-linecap="round" />
</g>
<g transform="matrix(1 0 0 1 0 -9.1)" >
<path style="stroke: rgb(25,25,25); stroke-width: 1; stroke-dasharray: none; stroke-linecap: round; stroke-dashoffset: 0; stroke-linejoin: round; stroke-miterlimit: 4; fill: none; fill-rule: nonzero; opacity: 1;" transform=" translate(-12, -3.4)" d="M 12.357 6.147 C 12.3104 6.19447 12.2549 6.23218 12.1936 6.25793 C 12.1323 6.28367 12.0665 6.29693 12 6.29693 C 11.9335 6.29693 11.8677 6.28367 11.8064 6.25793 C 11.7451 6.23218 11.6895 6.19447 11.643 6.147 L 9.017 3.464 C 8.75438 3.21038 8.58038 2.87894 8.52077 2.51874 C 8.46116 2.15854 8.51909 1.78872 8.686 1.464 C 8.81512 1.21778 8.99996 1.00513 9.22581 0.842989 C 9.45165 0.680848 9.71225 0.573703 9.98683 0.530092 C 10.2614 0.486482 10.5424 0.507613 10.8073 0.591801 C 11.0723 0.675989 11.3139 0.820907 11.513 1.015 L 12 1.5 L 12.487 1.023 C 12.6861 0.828907 12.9277 0.683989 13.1927 0.599801 C 13.4576 0.515613 13.7386 0.494482 14.0132 0.538092 C 14.2878 0.581703 14.5483 0.688848 14.7742 0.850989 C 15 1.01313 15.1849 1.22578 15.314 1.472 C 15.4809 1.79672 15.5388 2.16654 15.4792 2.52674 C 15.4196 2.88694 15.2456 3.21838 14.983 3.472 L 12.357 6.147 Z" stroke-linecap="round" />
</g>
<g transform="matrix(1 0 0 1 8.5 0.96)" >
<path style="stroke: rgb(25,25,25); stroke-width: 1; stroke-dasharray: none; stroke-linecap: round; stroke-dashoffset: 0; stroke-linejoin: round; stroke-miterlimit: 4; fill: none; fill-rule: nonzero; opacity: 1;" transform=" translate(-20.5, -13.46)" d="M 23.5 23.512 L 23.5 13.512 C 23.5001 11.4446 22.9429 9.41544 21.887 7.63803 C 20.8311 5.86063 19.3156 4.40073 17.5 3.41199" stroke-linecap="round" />
</g>
<g transform="matrix(1 0 0 1 -8.5 0.96)" >
<path style="stroke: rgb(25,25,25); stroke-width: 1; stroke-dasharray: none; stroke-linecap: round; stroke-dashoffset: 0; stroke-linejoin: round; stroke-miterlimit: 4; fill: none; fill-rule: nonzero; opacity: 1;" transform=" translate(-3.5, -13.46)" d="M 6.5 3.41101 C 4.68439 4.39976 3.1689 5.85966 2.11301 7.63706 C 1.05713 9.41446 0.499911 11.4436 0.5 13.511 L 0.5 23.511" stroke-linecap="round" />
</g>
</g>
</g>
</svg>