<svg id='Calendar_2_24' width='24' height='24' viewBox='0 0 24 24' xmlns='http://www.w3.org/2000/svg' xmlns:xlink='http://www.w3.org/1999/xlink'><rect width='24' height='24' stroke='none' fill='#000000' opacity='0'/>


<g transform="matrix(0.42 0 0 0.42 12 12)" >
<g style="" >
<g transform="matrix(1 0 0 1 0 5)" >
<path style="stroke: none; stroke-width: 1; stroke-dasharray: none; stroke-linecap: butt; stroke-dashoffset: 0; stroke-linejoin: miter; stroke-miterlimit: 4; fill: rgb(187,222,251); fill-rule: nonzero; opacity: 1;" transform=" translate(-24, -29)" d="M 5 39 L 5 15 L 43 15 L 43 39 C 43 41.209 41.209 43 39 43 L 9 43 C 6.791 43 5 41.209 5 39" stroke-linecap="round" />
</g>
<g transform="matrix(1 0 0 1 0 -12)" >
<path style="stroke: none; stroke-width: 1; stroke-dasharray: none; stroke-linecap: butt; stroke-dashoffset: 0; stroke-linejoin: miter; stroke-miterlimit: 4; fill: rgb(33,150,243); fill-rule: nonzero; opacity: 1;" transform=" translate(-24, -12)" d="M 43 11 L 43 17 L 5 17 L 5 11 C 5 8.791 6.791 7 9 7 L 39 7 C 41.209 7 43 8.791 43 11" stroke-linecap="round" />
</g>
<g transform="matrix(1 0 0 1 0 -13)" >
<path style="stroke: none; stroke-width: 1; stroke-dasharray: none; stroke-linecap: butt; stroke-dashoffset: 0; stroke-linejoin: miter; stroke-miterlimit: 4; fill: rgb(21,101,192); fill-rule: nonzero; opacity: 1;" transform=" translate(-24, -11)" d="M 36 11 C 36 12.657 34.657 14 33 14 C 31.343000000000004 14 30 12.657 30 11 C 30 9.343 31.343 8 33 8 C 34.657 8 36 9.343 36 11 M 18 11 C 18 12.657 16.657 14 15 14 C 13.343 14 12 12.657 12 11 C 12 9.343 13.343 8 15 8 C 16.657 8 18 9.343 18 11" stroke-linecap="round" />
</g>
<g transform="matrix(1 0 0 1 0 -15.5)" >
<path style="stroke: none; stroke-width: 1; stroke-dasharray: none; stroke-linecap: butt; stroke-dashoffset: 0; stroke-linejoin: miter; stroke-miterlimit: 4; fill: rgb(176,190,197); fill-rule: nonzero; opacity: 1;" transform=" translate(-24, -8.5)" d="M 33 4 C 31.896 4 31 4.896 31 6 L 31 11 C 31 12.104 31.896 13 33 13 C 34.104 13 35 12.104 35 11 L 35 6 C 35 4.896 34.104 4 33 4 M 15 4 C 13.896 4 13 4.896 13 6 L 13 11 C 13 12.104 13.896 13 15 13 C 16.104 13 17 12.104 17 11 L 17 6 C 17 4.896 16.104 4 15 4" stroke-linecap="round" />
</g>
<g transform="matrix(1 0 0 1 0.04 6)" >
<path style="stroke: none; stroke-width: 1; stroke-dasharray: none; stroke-linecap: butt; stroke-dashoffset: 0; stroke-linejoin: miter; stroke-miterlimit: 4; fill: rgb(21,101,192); fill-rule: nonzero; opacity: 1;" transform=" translate(-24.04, -30)" d="M 29 37 L 19.369 37 L 19.369 34.914 L 23.805 30.25 C 24.898 29.006 25.445 28.016 25.445 27.283 C 25.445 26.689 25.316 26.238 25.056 25.928 C 24.796 25.619 24.421 25.463 23.929000000000002 25.463 C 23.443 25.463 23.048000000000002 25.67 22.744000000000003 26.084 C 22.441000000000003 26.498 22.288000000000004 27.016 22.288000000000004 27.634999999999998 L 19.084000000000003 27.634999999999998 C 19.084000000000003 26.788999999999998 19.295 26.005999999999997 19.719000000000005 25.288999999999998 C 20.142000000000003 24.569999999999997 20.730000000000004 24.011 21.481000000000005 23.607 C 22.232 23.202 23.074 23 24.003 23 C 25.494 23 26.643 23.343 27.449 24.033 C 28.255000000000003 24.722 28.658 25.711000000000002 28.658 27 C 28.658 27.543 28.556 28.072 28.353 28.588 C 28.150000000000002 29.104000000000003 27.836000000000002 29.643 27.41 30.209 C 26.982 30.775 26.297 31.531 25.347 32.479 L 23.564 34.539 L 28.996000000000002 34.539 L 28.996000000000002 37 L 29 37 z" stroke-linecap="round" />
</g>
</g>
</g>
</svg>