<svg id='Green_Dress_24' width='24' height='24' viewBox='0 0 24 24' xmlns='http://www.w3.org/2000/svg' xmlns:xlink='http://www.w3.org/1999/xlink'><rect width='24' height='24' stroke='none' fill='#000000' opacity='0'/>


<g transform="matrix(0.42 0 0 0.42 12 12)" >
<g style="" >
<g transform="matrix(1 0 0 1 0 -0.5)" >
<path style="stroke: none; stroke-width: 1; stroke-dasharray: none; stroke-linecap: butt; stroke-dashoffset: 0; stroke-linejoin: miter; stroke-miterlimit: 4; fill: rgb(156,204,101); fill-rule: nonzero; opacity: 1;" transform=" translate(-24, -23.5)" d="M 39 42 C 39 42 36 27 31 22 C 30.859 19.891 32 15 32 15 C 32.301 16.108 33 19 33 19 L 37 18 C 35 10 34.359 7.457000000000001 33.345 5.618 C 33.125 5.218 32.772999999999996 4.907 32.35 4.735 L 28 3 C 28 3 25 10 24 10 C 23 10 20 3 20 3 L 15.65 4.735 C 15.227 4.907 14.874 5.219 14.654 5.619000000000001 C 13.64 7.459 13 10 11 18 L 15 19 C 15 19 15.701 16.104 16 15 C 16 15 17.143 19.891 17 22 C 12 27 9 42 9 42 C 9 42 14.994 44 24 44 C 32.994 44 39 42 39 42 z" stroke-linecap="round" />
</g>
<g transform="matrix(1 0 0 1 0 -0.5)" >
<path style="stroke: none; stroke-width: 1; stroke-dasharray: none; stroke-linecap: butt; stroke-dashoffset: 0; stroke-linejoin: miter; stroke-miterlimit: 4; fill: rgb(124,179,66); fill-rule: nonzero; opacity: 1;" transform=" translate(-24, -23.5)" d="M 28 3 C 28 3 26.209 4 24 4 C 21.791 4 20 3 20 3 C 20 3 23 10 24 10 C 25 10 28 3 28 3 z M 12.66 42.91 C 13.74 43.129999999999995 15.04 43.349999999999994 16.53 43.54 C 17.34 37.38 19 27 21 22 C 17 27 14.36 36.61 12.66 42.91 z M 27 22 C 29 27 30.67 37.36 31.46 43.54 L 31.470000000000002 43.54 L 35.34 42.91 C 33.65 36.61 31 27 27 22 z M 24 21.95 C 24 21.95 22.61 33.37 22.05 43.97 C 22.67 43.99 23.32 44 24 44 C 24.68 44 25.33 43.99 25.95 43.97 C 25.39 33.37 24 21.95 24 21.95 z" stroke-linecap="round" />
</g>
</g>
</g>
</svg>