<svg id='Australia_24' width='24' height='24' viewBox='0 0 24 24' xmlns='http://www.w3.org/2000/svg' xmlns:xlink='http://www.w3.org/1999/xlink'><rect width='24' height='24' stroke='none' fill='#000000' opacity='0'/>


<g transform="matrix(0.42 0 0 0.42 12 12)" >
<g style="" >
<g transform="matrix(1 0 0 1 0 0)" >
<path style="stroke: none; stroke-width: 1; stroke-dasharray: none; stroke-linecap: butt; stroke-dashoffset: 0; stroke-linejoin: miter; stroke-miterlimit: 4; fill: rgb(40,53,147); fill-rule: nonzero; opacity: 1;" transform=" translate(-24, -24)" d="M 2 10 L 46 10 L 46 38 L 2 38 z" stroke-linecap="round" />
</g>
<g transform="matrix(1 0 0 1 -2 -2)" >
<path style="stroke: none; stroke-width: 1; stroke-dasharray: none; stroke-linecap: butt; stroke-dashoffset: 0; stroke-linejoin: miter; stroke-miterlimit: 4; fill: rgb(255,255,255); fill-rule: nonzero; opacity: 1;" transform=" translate(-22, -22)" d="M 13 28 L 13.593 29.892 L 15.405 29.188 L 14.332999999999998 30.843999999999998 L 16 31.859 L 14.068999999999999 32.031 L 14.335 34 L 13 32.559 L 11.665 34 L 11.931 32.031 L 10 31.859 L 11.667 30.845000000000002 L 10.594999999999999 29.189000000000004 L 12.406999999999998 29.893000000000004 L 13 28 z M 34.5 31 L 34.797 31.946 L 35.702999999999996 31.594 L 35.166999999999994 32.422000000000004 L 36 32.929 L 35.035 33.015 L 35.168 34 L 34.5 33.28 L 33.832 34 L 33.965 33.015 L 33 32.929 L 33.833 32.422000000000004 L 33.297 31.594000000000005 L 34.202999999999996 31.946000000000005 L 34.5 31 z M 29.465 21.985 L 29.762 22.931 L 30.668 22.579 L 30.131999999999998 23.407 L 30.964999999999996 23.914 L 30 24 L 30.133 24.985 L 29.465 24.265 L 28.797 24.985 L 28.931 24 L 27.966 23.914 L 28.799 23.407 L 28.262999999999998 22.579 L 29.168999999999997 22.931 L 29.465 21.985 z M 34.5 16 L 34.797 16.946 L 35.702999999999996 16.594 L 35.166999999999994 17.422 L 36 17.929 L 35.035 18.014999999999997 L 35.168 19 L 34.5 18.28 L 33.832 19 L 33.965 18.015 L 33 17.929 L 33.833 17.421999999999997 L 33.297 16.593999999999998 L 34.202999999999996 16.945999999999998 L 34.5 16 z M 40.5 21 L 40.797 21.946 L 41.702999999999996 21.594 L 41.166999999999994 22.422 L 42 22.929 L 41.035 23.014999999999997 L 41.168 24 L 40.5 23.28 L 39.832 24 L 39.965 23.015 L 39 22.929 L 39.833 22.421999999999997 L 39.297 21.593999999999998 L 40.202999999999996 21.945999999999998 L 40.5 21 z M 37 25 L 37.275 25.708 L 38 25.764 L 37.444 26.256999999999998 L 37.618 27 L 37 26.597 L 36.382 27 L 36.556 26.257 L 36 25.764 L 36.725 25.708 L 37 25 z M 2 11.957 L 11.459 17.864 L 12.882 15.485000000000001 L 4.094 10 L 2 10 L 2 11.957 z M 24 10 L 22.359 10 L 13.574000000000002 15.484 L 14.996000000000002 17.863 L 24 12.24 L 24 10 z M 14.996 15.769 L 13.574 18.144 L 22.951 24 L 24 24 L 24 21.391 L 14.996 15.769 z M 2 21.676 L 2 24 L 3.505 24 L 12.882000000000001 18.145 L 11.459000000000001 15.77 L 2 21.676 z M 24 15 L 2 15 L 2 19 L 24 19 L 24 15 z M 11 10 L 11 24 L 15 24 L 15 10 L 11 10 z" stroke-linecap="round" />
</g>
<g transform="matrix(1 0 0 1 -11 -7)" >
<path style="stroke: none; stroke-width: 1; stroke-dasharray: none; stroke-linecap: butt; stroke-dashoffset: 0; stroke-linejoin: miter; stroke-miterlimit: 4; fill: rgb(229,57,53); fill-rule: nonzero; opacity: 1;" transform=" translate(-13, -17)" d="M 8.898 19 L 10.642 19 L 2.6319999999999997 24 L 2 24 L 2 23.305 L 8.898 19 z M 9.488 15 L 2 10.324 L 2 11.414 L 7.746 15 L 9.488 15 z M 17.558 19 L 24 23.021 L 24 21.933 L 19.3 19 L 17.558 19 z M 23.232 10 L 15.224 15 L 16.968 15 L 24 10.609 L 24 10 L 23.232 10 z M 13.999 10 L 11.999 10 L 11.999 16 L 2 16 L 2 18 L 11.999 18 L 11.999 24 L 13.999 24 L 13.999 18 L 24 18 L 24 16 L 13.999 16 L 13.999 10 z" stroke-linecap="round" />
</g>
</g>
</g>
</svg>