<svg id='Phone_24' width='24' height='24' viewBox='0 0 24 24' xmlns='http://www.w3.org/2000/svg' xmlns:xlink='http://www.w3.org/1999/xlink'><rect width='24' height='24' stroke='none' fill='#000000' opacity='0'/>


<g transform="matrix(0.87 0 0 0.87 12 12)" >
<path style="stroke: none; stroke-width: 1; stroke-dasharray: none; stroke-linecap: butt; stroke-dashoffset: 0; stroke-linejoin: miter; stroke-miterlimit: 4; fill: rgb(0,0,0); fill-rule: nonzero; opacity: 1;" transform=" translate(-15.5, -14.5)" d="M 21.225 17.889 C 20.819000000000003 17.651 20.32 17.656 19.916 17.896 L 17.87 19.115000000000002 C 17.412000000000003 19.388 16.84 19.356 16.42 19.028000000000002 C 15.694000000000003 18.461000000000002 14.525000000000002 17.507 13.508000000000003 16.490000000000002 C 12.491000000000003 15.473000000000003 11.537000000000003 14.304000000000002 10.970000000000002 13.578000000000003 C 10.642000000000003 13.158000000000003 10.610000000000003 12.586000000000002 10.883000000000003 12.128000000000004 L 12.102000000000002 10.082000000000004 C 12.343000000000002 9.678000000000004 12.345000000000002 9.175000000000004 12.107000000000003 8.769000000000004 L 9.105 3.641 C 8.814 3.145 8.236 2.901 7.6770000000000005 3.0380000000000003 C 7.134 3.17 6.429 3.492 5.69 4.232 C 3.3760000000000003 6.546 2.1470000000000002 10.449 10.849 19.151 C 19.551000000000002 27.853 23.453 26.625 25.768 24.31 C 26.509 23.569 26.830000000000002 22.863 26.963 22.319 C 27.098000000000003 21.761 26.858 21.186999999999998 26.363 20.897 C 25.127 20.174 22.461 18.613 21.225 17.889 z" stroke-linecap="round" />
</g>
</svg>