<svg id='Suit_24' width='24' height='24' viewBox='0 0 24 24' xmlns='http://www.w3.org/2000/svg' xmlns:xlink='http://www.w3.org/1999/xlink'><rect width='24' height='24' stroke='none' fill='#000000' opacity='0'/>


<g transform="matrix(0.2 0 0 0.2 12 12)" >
<g style="" >
<g transform="matrix(1 0 0 1 0.5 0.09)" >
<path style="stroke: none; stroke-width: 1; stroke-dasharray: none; stroke-linecap: butt; stroke-dashoffset: 0; stroke-linejoin: miter; stroke-miterlimit: 4; fill: rgb(117,132,157); fill-rule: nonzero; opacity: 1;" transform=" translate(-50.5, -50.09)" d="M 81.807 79.088 C 82.98400000000001 79.088 83.907 78.076 83.799 76.904 L 82.527 63.138 C 82.178 59.12 81.343 55.158 80.042 51.339999999999996 L 75.105 36.854 C 74.393 33.137 72.354 29.807 69.367 27.484 L 69.22200000000001 27.371000000000002 C 66.48700000000001 25.243000000000002 63.120000000000005 24.088 59.65400000000001 24.088 L 59 24.088 L 58.913 23.943 C 57.105999999999995 20.931 53.851 19.088 50.337999999999994 19.088 L 49.66199999999999 19.088 C 46.148999999999994 19.088 42.89399999999999 20.931 41.08699999999999 23.943 L 41 24.088 L 40.347 24.088 C 36.882000000000005 24.088 33.515 25.243000000000002 30.779000000000003 27.371000000000002 L 30.779000000000003 27.371000000000002 C 27.705000000000005 29.762 25.637000000000004 33.218 24.984 37.057 L 20.462000000000003 52.195 C 19.490000000000002 55.449 18.852000000000004 58.793 18.558000000000003 62.175 L 17.201000000000004 76.904 C 17.093000000000004 78.076 18.016000000000005 79.08699999999999 19.193000000000005 79.08699999999999 L 25.176000000000005 79.08699999999999 C 26.209000000000007 79.08699999999999 27.073000000000004 78.29999999999998 27.168000000000006 77.27099999999999 L 28.505000000000006 62.78899999999999 C 28.834000000000007 58.999999999999986 29.595000000000006 55.26099999999999 30.772000000000006 51.64499999999999 L 33.276 43.950999999999986 L 33.029 77.136 C 33.013000000000005 79.313 34.773 81.08699999999999 36.951 81.08699999999999 L 36.951 81.08699999999999 C 37.795 81.08699999999999 38.616 80.81499999999998 39.292 80.31099999999999 L 49 74.088 L 61.066 80.51299999999999 C 61.677 80.889 62.38 81.088 63.097 81.088 L 63.097 81.088 C 65.248 81.088 66.987 79.336 66.971 77.18499999999999 L 66.723 43.93199999999999 L 69.569 52.685999999999986 C 70.521 55.61399999999998 71.2 58.62399999999999 71.599 61.676999999999985 L 73.762 77.36099999999999 C 73.898 78.35099999999998 74.744 79.088 75.743 79.088 L 81.807 79.088 z" stroke-linecap="round" />
</g>
<g transform="matrix(1 0 0 1 10 -2.16)" >
<path style="stroke: none; stroke-width: 1; stroke-dasharray: none; stroke-linecap: butt; stroke-dashoffset: 0; stroke-linejoin: miter; stroke-miterlimit: 4; fill: rgb(142,157,181); fill-rule: nonzero; opacity: 1;" transform=" translate(-60, -47.84)" d="M 62 49.343 L 58 49.343 C 56.895 49.343 56 48.448 56 47.343 L 56 46.343 L 64 46.343 L 64 47.343 C 64 48.448 63.105 49.343 62 49.343 z" stroke-linecap="round" />
</g>
<g transform="matrix(1 0 0 1 -0.87 -13.41)" >
<polygon style="stroke: none; stroke-width: 1; stroke-dasharray: none; stroke-linecap: butt; stroke-dashoffset: 0; stroke-linejoin: miter; stroke-miterlimit: 4; fill: rgb(142,157,181); fill-rule: nonzero; opacity: 1;" points="12.63,-6.16 9.57,-11.84 6.76,-15.48 1.56,7.66 -5.56,-14.52 -12.63,-5.75 -7.03,-5.84 -9.83,0.1 0.31,11.97 0.57,12.08 -0.2,15.48 10.21,0.61 6.95,-5.65 " />
</g>
<g transform="matrix(1 0 0 1 3.02 19.38)" >
<circle style="stroke: none; stroke-width: 1; stroke-dasharray: none; stroke-linecap: butt; stroke-dashoffset: 0; stroke-linejoin: miter; stroke-miterlimit: 4; fill: rgb(68,68,69); fill-rule: nonzero; opacity: 1;" cx="0" cy="0" r="1.532" />
</g>
<g transform="matrix(1 0 0 1 3.02 8.42)" >
<circle style="stroke: none; stroke-width: 1; stroke-dasharray: none; stroke-linecap: butt; stroke-dashoffset: 0; stroke-linejoin: miter; stroke-miterlimit: 4; fill: rgb(68,68,69); fill-rule: nonzero; opacity: 1;" cx="0" cy="0" r="1.532" />
</g>
<g transform="matrix(1 0 0 1 0.5 0.13)" >
<path style="stroke: none; stroke-width: 1; stroke-dasharray: none; stroke-linecap: butt; stroke-dashoffset: 0; stroke-linejoin: miter; stroke-miterlimit: 4; fill: rgb(31,33,43); fill-rule: nonzero; opacity: 1;" transform=" translate(-50.5, -50.13)" d="M 83.522 63.091 C 83.167 58.996 82.31400000000001 54.947 80.988 51.058 L 76.073 36.635999999999996 C 75.303 32.706999999999994 73.142 29.193999999999996 69.982 26.735999999999997 L 69.835 26.621999999999996 C 66.939 24.368999999999996 63.321999999999996 23.128999999999998 59.65299999999999 23.128999999999998 L 59.55799999999999 23.128999999999998 C 57.541999999999994 20.034999999999997 54.04599999999999 18.128999999999998 50.337999999999994 18.128999999999998 L 49.66199999999999 18.128999999999998 C 45.95399999999999 18.128999999999998 42.45899999999999 20.034 40.44199999999999 23.128999999999998 L 40.346999999999994 23.128999999999998 C 36.678 23.128999999999998 33.062 24.368999999999996 30.164999999999992 26.621999999999996 C 26.901999999999994 29.159999999999997 24.71699999999999 32.797999999999995 24.008999999999993 36.869 L 19.503999999999994 51.949 C 18.513999999999996 55.262 17.859999999999996 58.686 17.561999999999994 62.123999999999995 L 16.205999999999992 76.853 C 16.12899999999999 77.69099999999999 16.409999999999993 78.529 16.976999999999993 79.14999999999999 C 17.543999999999993 79.77199999999999 18.351999999999993 80.12899999999999 19.192999999999994 80.12899999999999 L 25.175999999999995 80.12899999999999 C 26.735999999999994 80.12899999999999 28.019999999999996 78.957 28.162999999999997 77.404 L 29.5 62.917 C 29.822 59.209 30.57 55.534 31.722 51.995000000000005 L 32.228 50.441 L 32.029 77.16900000000001 C 32.019000000000005 78.49100000000001 32.527 79.73500000000001 33.458000000000006 80.674 C 34.389 81.61200000000001 35.629000000000005 82.128 36.95100000000001 82.128 C 38.001000000000005 82.128 39.04500000000001 81.782 39.83200000000001 81.194 L 49.04700000000001 75.286 L 60.54200000000001 81.404 C 61.31200000000001 81.878 62.19500000000001 82.128 63.09700000000001 82.128 C 64.406 82.128 65.63400000000001 81.616 66.55600000000001 80.688 C 67.47800000000001 79.758 67.98100000000001 78.526 67.97100000000002 77.217 L 67.77200000000002 50.431 L 68.61800000000002 53.035 C 69.54900000000002 55.895999999999994 70.21800000000002 58.861 70.60800000000002 61.852999999999994 L 72.77100000000002 77.538 C 72.97500000000001 79.015 74.25300000000001 80.128 75.74300000000001 80.128 L 81.80600000000001 80.128 C 82.64800000000001 80.128 83.45600000000002 79.772 84.02300000000001 79.149 C 84.59 78.527 84.87100000000001 77.68900000000001 84.79400000000001 76.851 L 83.522 63.091 z M 58.035 24.467 C 57.986 24.607999999999997 57.992999999999995 24.766 58.08 24.9 L 61.213 29.72 L 56.457 30.128999999999998 C 56.292 30.142999999999997 56.145 30.238 56.064 30.383 C 55.983 30.528 55.979 30.701999999999998 56.053 30.851 L 58.925999999999995 36.595 L 49.62 50.977 L 56.178 22.307999999999996 C 56.897 22.923 57.535 23.64 58.035 24.467 z M 50.338 20.128 C 52.131 20.128 53.855000000000004 20.688 55.312 21.656 C 55.306 21.674 55.293 21.689 55.288999999999994 21.708 L 50.464999999999996 42.796 L 44.145999999999994 22.034 C 45.705999999999996 20.826 47.641999999999996 20.128 49.66199999999999 20.128 L 50.338 20.128 z M 43.32 22.755 L 50.017 44.757 L 49.351000000000006 47.667 L 40.09400000000001 36.558 L 42.94800000000001 30.851 C 43.02600000000001 30.695999999999998 43.01700000000001 30.512 42.92600000000001 30.365 C 42.83500000000001 30.217999999999996 42.67400000000001 30.128 42.50100000000001 30.128 L 37.56800000000001 30.128 L 41.88500000000001 24.948 C 42.00100000000001 24.809 42.02000000000001 24.627 41.96500000000001 24.468 C 42.347 23.836 42.805 23.265 43.32 22.755 z M 82.546 77.802 C 82.35400000000001 78.012 82.09100000000001 78.128 81.807 78.128 L 75.744 78.128 C 75.247 78.128 74.821 77.757 74.753 77.265 L 72.59 61.587 C 72.184 58.481 71.488 55.395 70.52000000000001 52.416000000000004 L 67.674 43.662000000000006 C 67.522 43.193000000000005 67.05000000000001 42.906000000000006 66.563 42.98400000000001 C 66.07600000000001 43.06300000000001 65.72 43.48600000000001 65.723 43.979000000000006 L 65.971 77.232 C 65.977 78.003 65.68 78.73 65.137 79.278 C 64.219 80.20400000000001 62.782000000000004 80.43 61.537 79.67 L 49.47 73.245 C 49.323 73.167 49.161 73.128 49 73.128 L 49 70.628 C 49 70.352 48.776 70.128 48.5 70.128 C 48.224 70.128 48 70.352 48 70.628 L 48 73.582 L 38.695 79.55 C 37.562 80.392 35.869 80.26299999999999 34.877 79.265 C 34.324000000000005 78.708 34.023 77.969 34.029 77.185 L 34.276 43.999 C 34.279 43.506 33.923 43.083000000000006 33.436 43.004000000000005 C 32.954 42.925000000000004 32.478 43.21300000000001 32.325 43.682 L 29.821 51.376000000000005 C 28.622 55.06 27.843 58.885000000000005 27.509 62.73800000000001 L 26.172 77.22 C 26.124000000000002 77.738 25.696 78.128 25.176000000000002 78.128 L 19.193 78.128 C 18.908 78.128 18.646 78.012 18.454 77.802 C 18.262 77.59200000000001 18.171 77.32000000000001 18.197 77.036 L 19.554 62.302 C 19.842 58.994 20.47 55.703 21.419999999999998 52.521 L 25.942 37.383 C 25.954 37.344 25.963 37.305 25.97 37.265 C 26.583 33.662 28.509999999999998 30.444000000000003 31.393 28.200000000000003 C 33.94 26.220000000000002 37.121 25.129 40.347 25.129 L 40.432 25.129 L 36.116 30.309 C 35.992 30.458000000000002 35.964999999999996 30.665000000000003 36.048 30.841 C 36.13 31.017 36.307 31.129 36.501000000000005 31.129 L 41.69200000000001 31.129 L 39.05400000000001 36.405 C 38.96500000000001 36.583 38.99000000000001 36.797000000000004 39.11700000000001 36.949 L 49.07200000000001 48.894 L 48.01400000000001 53.516999999999996 L 48.01400000000001 53.528 C 48.00000000000001 53.597 47.99900000000001 53.668 48.01400000000001 53.736 L 48 63.628 C 48 63.904 48.224 64.128 48.5 64.128 C 48.776 64.128 49 63.904 49 63.628 L 49 53.775999999999996 L 59.92 36.89999999999999 C 60.016 36.75199999999999 60.026 36.56299999999999 59.947 36.404999999999994 L 57.276 31.063999999999993 L 62.13 30.645999999999994 C 62.305 30.630999999999993 62.459 30.524999999999995 62.536 30.367999999999995 C 62.613 30.209999999999994 62.602000000000004 30.022999999999996 62.506 29.875999999999994 L 59.421 25.128999999999994 L 59.652 25.128999999999994 C 62.879 25.128999999999994 66.059 26.219999999999995 68.604 28.198999999999995 L 68.751 28.312999999999995 C 71.548 30.488999999999997 73.455 33.602999999999994 74.12100000000001 37.083 C 74.129 37.128 74.14200000000001 37.173 74.156 37.217 L 79.09400000000001 51.703 C 80.36800000000001 55.441 81.18700000000001 59.331 81.53 63.27 L 82.802 77.036 C 82.829 77.319 82.738 77.591 82.546 77.802 z" stroke-linecap="round" />
</g>
<g transform="matrix(1 0 0 1 -1.5 17.63)" >
<path style="stroke: none; stroke-width: 1; stroke-dasharray: none; stroke-linecap: butt; stroke-dashoffset: 0; stroke-linejoin: miter; stroke-miterlimit: 4; fill: rgb(31,33,43); fill-rule: nonzero; opacity: 1;" transform=" translate(-48.5, -67.63)" d="M 48.5 66.128 C 48.224 66.128 48 66.352 48 66.628 L 48 68.628 C 48 68.904 48.224 69.128 48.5 69.128 C 48.776 69.128 49 68.904 49 68.628 L 49 66.628 C 49 66.352 48.776 66.128 48.5 66.128 z" stroke-linecap="round" />
</g>
<g transform="matrix(1 0 0 1 3 8.13)" >
<path style="stroke: none; stroke-width: 1; stroke-dasharray: none; stroke-linecap: butt; stroke-dashoffset: 0; stroke-linejoin: miter; stroke-miterlimit: 4; fill: rgb(31,33,43); fill-rule: nonzero; opacity: 1;" transform=" translate(-53, -58.13)" d="M 53 56.128 C 51.897 56.128 51 57.025 51 58.128 C 51 59.231 51.897 60.128 53 60.128 C 54.103 60.128 55 59.231 55 58.128 C 55 57.025 54.103 56.128 53 56.128 z M 53 59.128 C 52.449 59.128 52 58.68 52 58.128 C 52 57.576 52.449 57.128 53 57.128 C 53.551 57.128 54 57.576 54 58.128 C 54 58.68 53.551 59.128 53 59.128 z" stroke-linecap="round" />
</g>
<g transform="matrix(1 0 0 1 3 19.13)" >
<path style="stroke: none; stroke-width: 1; stroke-dasharray: none; stroke-linecap: butt; stroke-dashoffset: 0; stroke-linejoin: miter; stroke-miterlimit: 4; fill: rgb(31,33,43); fill-rule: nonzero; opacity: 1;" transform=" translate(-53, -69.13)" d="M 53 67.128 C 51.897 67.128 51 68.025 51 69.128 C 51 70.231 51.897 71.128 53 71.128 C 54.103 71.128 55 70.231 55 69.128 C 55 68.025 54.103 67.128 53 67.128 z M 53 70.128 C 52.449 70.128 52 69.68 52 69.128 C 52 68.576 52.449 68.128 53 68.128 C 53.551 68.128 54 68.576 54 69.128 C 54 69.68 53.551 70.128 53 70.128 z" stroke-linecap="round" />
</g>
<g transform="matrix(1 0 0 1 10 -2.37)" >
<path style="stroke: none; stroke-width: 1; stroke-dasharray: none; stroke-linecap: butt; stroke-dashoffset: 0; stroke-linejoin: miter; stroke-miterlimit: 4; fill: rgb(31,33,43); fill-rule: nonzero; opacity: 1;" transform=" translate(-60, -47.63)" d="M 56 48.628 C 56 48.904 56.224 49.128 56.5 49.128 L 58.5 49.128 C 58.776 49.128 59 48.904 59 48.628 C 59 48.352 58.776 48.128 58.5 48.128 L 57 48.128 L 57 47.128 L 63 47.128 L 63 48.128 L 61.5 48.128 C 61.224 48.128 61 48.352 61 48.628 C 61 48.904 61.224 49.128 61.5 49.128 L 63.5 49.128 C 63.776 49.128 64 48.904 64 48.628 L 64 46.128 L 56 46.128 L 56 48.628 z" stroke-linecap="round" />
</g>
<g transform="matrix(1 0 0 1 -10.5 13.63)" >
<path style="stroke: none; stroke-width: 1; stroke-dasharray: none; stroke-linecap: butt; stroke-dashoffset: 0; stroke-linejoin: miter; stroke-miterlimit: 4; fill: rgb(31,33,43); fill-rule: nonzero; opacity: 1;" transform=" translate(-39.5, -63.63)" d="M 42.5 63.128 L 36.5 63.128 C 36.224 63.128 36 63.352 36 63.628 C 36 63.904 36.224 64.128 36.5 64.128 L 42.5 64.128 C 42.776 64.128 43 63.904 43 63.628 C 43 63.352 42.776 63.128 42.5 63.128 z" stroke-linecap="round" />
</g>
<g transform="matrix(1 0 0 1 10.5 13.63)" >
<path style="stroke: none; stroke-width: 1; stroke-dasharray: none; stroke-linecap: butt; stroke-dashoffset: 0; stroke-linejoin: miter; stroke-miterlimit: 4; fill: rgb(31,33,43); fill-rule: nonzero; opacity: 1;" transform=" translate(-60.5, -63.63)" d="M 63.5 63.128 L 57.5 63.128 C 57.224 63.128 57 63.352 57 63.628 C 57 63.904 57.224 64.128 57.5 64.128 L 63.5 64.128 C 63.776 64.128 64 63.904 64 63.628 C 64 63.352 63.776 63.128 63.5 63.128 z" stroke-linecap="round" />
</g>
</g>
</g>
</svg>